<svg xmlns="http://www.w3.org/2000/svg" xmlns:xlink="http://www.w3.org/1999/xlink" width="500" zoomAndPan="magnify" viewBox="0 0 375 374.999991" height="500" preserveAspectRatio="xMidYMid meet" version="1.2"><defs><clipPath id="675d11aa60"><path d="M 115.109375 56 L 259 56 L 259 212 L 115.109375 212 Z M 115.109375 56 "/></clipPath></defs><g id="3491ceddc2"><g clip-rule="nonzero" clip-path="url(#675d11aa60)"><path style=" stroke:none;fill-rule:nonzero;fill:#cbd5e1;fill-opacity:1;" d="M 253.457031 145.738281 L 252.746094 147.480469 C 249.953125 154.324219 247.082031 161.410156 244.414062 168.433594 C 240.285156 179.347656 239.003906 188.449219 240.378906 197.078125 C 240.851562 199.671875 241.488281 202.226562 242.28125 204.742188 C 242.527344 205.578125 242.773438 206.410156 243.007812 207.25 C 243.175781 207.601562 243.265625 207.976562 243.273438 208.367188 C 243.285156 208.761719 243.214844 209.136719 243.066406 209.5 C 242.917969 209.863281 242.699219 210.179688 242.417969 210.449219 C 242.132812 210.71875 241.804688 210.921875 241.4375 211.054688 C 241.164062 211.160156 240.878906 211.230469 240.585938 211.257812 C 240.113281 211.53125 239.605469 211.664062 239.058594 211.65625 L 176.65625 211.65625 C 175.691406 211.90625 174.726562 211.925781 173.75 211.726562 C 172.777344 211.523438 171.898438 211.117188 171.113281 210.507812 C 169.742188 208.808594 168.777344 206.902344 168.21875 204.789062 C 168.058594 204.378906 167.933594 204.03125 167.855469 203.804688 C 164.535156 205.039062 161.113281 205.84375 157.589844 206.21875 C 154.070312 206.59375 150.554688 206.53125 147.050781 206.027344 C 143.199219 205.738281 139.574219 204.6875 136.171875 202.863281 C 134.664062 201.820312 133.429688 200.519531 132.460938 198.964844 C 131.492188 197.410156 130.871094 195.726562 130.597656 193.914062 C 129.882812 190.089844 130.433594 186.234375 130.101562 182.390625 C 129.890625 180.355469 129.410156 178.386719 128.65625 176.484375 C 127.898438 174.582031 126.902344 172.820312 125.660156 171.195312 C 125.449219 170.90625 125.292969 170.589844 125.191406 170.242188 L 124.832031 169.777344 C 124.550781 169.296875 124.410156 168.78125 124.414062 168.222656 L 124.414062 165.847656 C 124.410156 165.695312 124.425781 165.542969 124.453125 165.390625 C 123.894531 164.441406 123.625 163.414062 123.648438 162.3125 C 123.695312 161.671875 123.648438 161.035156 123.511719 160.410156 C 123.371094 159.78125 123.148438 159.1875 122.832031 158.625 C 122.519531 158.0625 122.132812 157.558594 121.671875 157.109375 C 121.210938 156.660156 120.695312 156.289062 120.128906 155.992188 C 119.621094 155.726562 119.148438 155.417969 118.703125 155.058594 C 118.257812 154.703125 117.855469 154.304688 117.488281 153.867188 C 117.125 153.429688 116.804688 152.960938 116.53125 152.460938 C 116.261719 151.957031 116.039062 151.4375 115.871094 150.890625 C 115.703125 150.347656 115.589844 149.789062 115.53125 149.222656 C 115.476562 148.65625 115.472656 148.089844 115.527344 147.523438 C 115.582031 146.953125 115.691406 146.398438 115.855469 145.851562 C 116.019531 145.304688 116.238281 144.78125 116.507812 144.28125 C 117.632812 141.832031 119.058594 139.574219 120.78125 137.507812 C 122.496094 135.476562 123.914062 133.253906 125.027344 130.839844 C 126.140625 128.425781 126.914062 125.910156 127.351562 123.289062 C 127.863281 120.003906 128.078125 116.609375 128.285156 113.332031 C 128.425781 111.074219 128.574219 108.75 128.816406 106.46875 C 130.992188 86.023438 141.355469 71.640625 159.605469 63.726562 C 170.730469 59.121094 182.304688 56.546875 194.332031 56.011719 C 197.933594 55.976562 201.507812 56.242188 205.0625 56.8125 C 208.617188 57.382812 212.097656 58.246094 215.503906 59.40625 C 218.914062 60.5625 222.199219 62 225.363281 63.714844 C 228.527344 65.429688 231.523438 67.398438 234.355469 69.621094 C 237.117188 71.796875 239.675781 74.191406 242.023438 76.808594 C 244.375 79.421875 246.484375 82.21875 248.355469 85.195312 C 250.226562 88.171875 251.832031 91.285156 253.167969 94.535156 C 254.503906 97.789062 255.554688 101.128906 256.316406 104.5625 C 257.171875 107.960938 257.75 111.40625 258.058594 114.898438 C 258.367188 118.386719 258.402344 121.882812 258.15625 125.378906 C 257.914062 128.871094 257.398438 132.328125 256.609375 135.742188 C 255.824219 139.15625 254.769531 142.488281 253.457031 145.738281 Z M 251.1875 107.664062 C 246.277344 83.351562 227.695312 65.578125 203.835938 62.382812 C 199.773438 61.878906 195.695312 61.699219 191.605469 61.839844 C 187.515625 61.980469 183.460938 62.445312 179.441406 63.234375 C 175.425781 64.019531 171.492188 65.117188 167.648438 66.527344 C 163.808594 67.933594 160.097656 69.640625 156.527344 71.636719 C 153.949219 72.96875 151.546875 74.566406 149.324219 76.429688 C 147.101562 78.296875 145.109375 80.378906 143.347656 82.683594 C 141.585938 84.992188 140.097656 87.460938 138.882812 90.09375 C 137.671875 92.730469 136.757812 95.464844 136.152344 98.300781 C 134.898438 103.792969 134.214844 109.351562 134.097656 114.984375 C 134.085938 117.429688 133.871094 119.855469 133.453125 122.265625 C 133.035156 124.675781 132.417969 127.03125 131.601562 129.339844 C 130.785156 131.644531 129.785156 133.867188 128.597656 136.003906 C 127.410156 138.140625 126.050781 140.164062 124.523438 142.074219 C 123.574219 143.203125 122.738281 144.414062 122.019531 145.703125 C 120.601562 148.382812 121.015625 149.898438 123.585938 151.492188 C 124.457031 151.96875 125.246094 152.546875 125.953125 153.234375 C 126.664062 153.925781 127.269531 154.695312 127.765625 155.546875 C 128.265625 156.402344 128.640625 157.304688 128.894531 158.261719 C 129.144531 159.21875 129.265625 160.1875 129.253906 161.175781 C 129.1875 161.65625 129.304688 162.085938 129.597656 162.46875 C 130 162.761719 130.449219 162.871094 130.941406 162.792969 C 133.839844 162.738281 136.851562 162.738281 139.886719 162.792969 C 140.816406 162.753906 141.621094 163.050781 142.300781 163.691406 C 142.828125 164.289062 143.054688 164.988281 142.976562 165.78125 C 142.90625 167.5 141.796875 168.453125 139.851562 168.453125 C 138.914062 168.453125 137.980469 168.457031 137.042969 168.464844 C 135.128906 168.476562 133.164062 168.476562 131.210938 168.449219 C 133.046875 171.175781 134.402344 174.128906 135.28125 177.300781 C 136.160156 180.46875 136.511719 183.699219 136.339844 186.984375 C 136.316406 190.027344 136.136719 193.554688 137.957031 196.175781 C 139.804688 198.84375 143.910156 199.316406 146.871094 199.820312 C 159.4375 201.949219 173.578125 197.90625 179.183594 185.574219 C 180.828125 181.972656 186.128906 185.097656 184.5 188.679688 C 183.292969 191.320312 181.710938 193.714844 179.761719 195.867188 C 177.8125 198.019531 175.582031 199.828125 173.074219 201.289062 C 173.769531 202.769531 174.378906 204.214844 174.894531 205.507812 L 236.355469 205.507812 C 235.546875 202.78125 234.957031 200.011719 234.589844 197.191406 C 234.222656 194.375 234.078125 191.542969 234.15625 188.703125 C 234.238281 185.863281 234.539062 183.046875 235.066406 180.253906 C 235.59375 177.460938 236.335938 174.726562 237.296875 172.050781 C 240.328125 163.171875 243.824219 154.289062 247.203125 145.699219 L 248.507812 142.386719 C 250.664062 136.859375 251.96875 131.136719 252.425781 125.222656 C 252.882812 119.308594 252.46875 113.457031 251.1875 107.664062 Z M 233.894531 111.359375 C 233.730469 111.214844 233.59375 111.046875 233.488281 110.855469 C 233.382812 110.667969 233.3125 110.464844 233.277344 110.25 C 233.242188 110.03125 233.242188 109.816406 233.28125 109.605469 C 233.320312 109.390625 233.394531 109.1875 233.503906 108.996094 C 233.816406 108.300781 234.058594 107.582031 234.226562 106.835938 C 234.394531 106.09375 234.484375 105.339844 234.5 104.574219 C 234.511719 103.8125 234.445312 103.054688 234.304688 102.304688 C 234.164062 101.554688 233.945312 100.824219 233.652344 100.121094 C 233.363281 99.414062 233.003906 98.746094 232.574219 98.113281 C 232.144531 97.480469 231.65625 96.898438 231.109375 96.367188 C 230.5625 95.835938 229.964844 95.363281 229.320312 94.953125 C 228.675781 94.542969 227.996094 94.203125 227.285156 93.933594 C 227.054688 93.875 226.839844 93.777344 226.644531 93.644531 C 226.445312 93.507812 226.28125 93.34375 226.140625 93.152344 C 226.003906 92.957031 225.898438 92.746094 225.835938 92.519531 C 225.769531 92.289062 225.746094 92.054688 225.765625 91.820312 C 225.730469 91.058594 225.628906 90.308594 225.457031 89.566406 C 225.28125 88.824219 225.042969 88.105469 224.734375 87.40625 C 224.425781 86.710938 224.058594 86.046875 223.625 85.421875 C 223.195312 84.792969 222.707031 84.210938 222.167969 83.671875 C 221.628906 83.136719 221.042969 82.652344 220.414062 82.226562 C 219.785156 81.796875 219.121094 81.429688 218.421875 81.128906 C 217.722656 80.824219 217.003906 80.585938 216.261719 80.417969 C 215.515625 80.25 214.765625 80.148438 214.003906 80.121094 C 213.273438 80.109375 212.640625 79.847656 212.117188 79.339844 C 209.164062 74.597656 205.957031 72.382812 202.058594 72.546875 C 200.996094 72.398438 199.941406 72.453125 198.898438 72.707031 C 198.550781 72.832031 198.160156 72.996094 198.160156 72.996094 C 197.832031 73.140625 197.503906 73.328125 196.992188 73.613281 C 196.625 73.820312 196.269531 74.046875 195.925781 74.292969 C 195.738281 74.417969 195.554688 74.539062 195.371094 74.679688 L 195.328125 74.703125 L 195.222656 74.804688 C 194.582031 75.339844 193.988281 75.921875 193.4375 76.546875 C 193.417969 76.570312 193.214844 76.816406 193.171875 76.859375 C 193.136719 76.917969 193.09375 76.972656 193.046875 77.023438 C 192.117188 78.5 191.511719 80.101562 191.222656 81.824219 L 191.222656 83.054688 C 191.078125 83.175781 190.921875 83.277344 190.753906 83.359375 C 188.09375 84.496094 185.386719 85.488281 182.625 86.339844 C 181.882812 86.558594 181.179688 86.476562 180.507812 86.09375 C 178.910156 84.921875 177.347656 83.589844 175.871094 82.296875 L 174.90625 81.476562 C 174.757812 81.308594 174.589844 81.15625 174.410156 81.027344 C 174.226562 80.894531 174.035156 80.785156 173.828125 80.699219 C 173.621094 80.613281 173.410156 80.546875 173.1875 80.507812 C 172.96875 80.464844 172.746094 80.449219 172.523438 80.460938 C 172.300781 80.46875 172.078125 80.5 171.863281 80.558594 C 171.644531 80.617188 171.4375 80.699219 171.238281 80.800781 C 171.042969 80.90625 170.855469 81.03125 170.6875 81.175781 C 170.515625 81.320312 170.363281 81.480469 170.226562 81.660156 C 167.84375 84.082031 165.382812 86.542969 163.019531 88.90625 L 162.753906 89.148438 C 162.585938 89.28125 162.4375 89.429688 162.300781 89.59375 C 162.164062 89.761719 162.046875 89.9375 161.953125 90.128906 C 161.855469 90.320312 161.78125 90.515625 161.726562 90.722656 C 161.671875 90.929688 161.640625 91.140625 161.632812 91.355469 C 161.621094 91.566406 161.636719 91.78125 161.675781 91.988281 C 161.710938 92.199219 161.769531 92.402344 161.851562 92.601562 C 161.933594 92.800781 162.035156 92.984375 162.15625 93.160156 C 162.277344 93.335938 162.414062 93.496094 162.570312 93.644531 L 163.925781 95.246094 C 165.136719 96.640625 166.386719 98.097656 167.476562 99.617188 C 167.890625 100.371094 167.972656 101.15625 167.722656 101.976562 C 167.378906 103.039062 166.984375 104.078125 166.53125 105.097656 C 166.164062 106 165.773438 106.945312 165.464844 107.890625 C 165.054688 109.097656 164.5625 109.492188 163.410156 109.53125 C 161.707031 109.574219 160.007812 109.738281 158.34375 109.902344 C 157.523438 109.964844 156.71875 110.042969 155.902344 110.105469 C 155.675781 110.097656 155.457031 110.109375 155.234375 110.148438 C 155.011719 110.183594 154.800781 110.246094 154.589844 110.332031 C 154.382812 110.414062 154.1875 110.523438 154.003906 110.648438 C 153.820312 110.777344 153.652344 110.921875 153.5 111.085938 C 153.347656 111.25 153.214844 111.429688 153.101562 111.625 C 152.988281 111.816406 152.894531 112.019531 152.828125 112.234375 C 152.757812 112.445312 152.710938 112.664062 152.691406 112.886719 C 152.667969 113.109375 152.671875 113.335938 152.699219 113.554688 C 152.71875 116.675781 152.71875 119.855469 152.699219 122.914062 L 152.699219 124.125 C 152.671875 124.347656 152.671875 124.570312 152.691406 124.796875 C 152.714844 125.019531 152.761719 125.238281 152.832031 125.449219 C 152.902344 125.660156 152.996094 125.863281 153.113281 126.054688 C 153.226562 126.25 153.363281 126.425781 153.519531 126.585938 C 153.675781 126.75 153.84375 126.890625 154.03125 127.015625 C 154.21875 127.140625 154.417969 127.242188 154.625 127.320312 C 154.835938 127.402344 155.050781 127.457031 155.273438 127.488281 C 155.496094 127.523438 155.71875 127.527344 155.941406 127.511719 C 157.625 127.59375 159.328125 127.757812 160.96875 127.902344 L 162.960938 128.085938 C 163.246094 128.066406 163.523438 128.09375 163.796875 128.175781 C 164.070312 128.257812 164.320312 128.382812 164.546875 128.554688 C 164.773438 128.726562 164.960938 128.933594 165.113281 129.175781 C 165.265625 129.417969 165.367188 129.675781 165.425781 129.957031 C 165.90625 131.71875 166.613281 133.390625 167.539062 134.964844 C 167.761719 135.242188 167.921875 135.554688 168.015625 135.898438 C 168.105469 136.246094 168.128906 136.59375 168.078125 136.945312 C 168.027344 137.300781 167.910156 137.628906 167.722656 137.933594 C 167.535156 138.238281 167.296875 138.492188 167.003906 138.699219 C 165.953125 139.75 164.96875 140.855469 164.050781 142.023438 C 163.535156 142.640625 163.046875 143.253906 162.511719 143.851562 C 162.355469 143.996094 162.214844 144.15625 162.09375 144.332031 C 161.972656 144.507812 161.871094 144.695312 161.789062 144.894531 C 161.707031 145.089844 161.644531 145.292969 161.605469 145.503906 C 161.570312 145.714844 161.550781 145.925781 161.558594 146.140625 C 161.566406 146.355469 161.59375 146.566406 161.648438 146.773438 C 161.699219 146.980469 161.773438 147.179688 161.867188 147.371094 C 161.960938 147.5625 162.074219 147.742188 162.207031 147.910156 C 162.339844 148.078125 162.488281 148.230469 162.652344 148.367188 C 165.179688 150.96875 167.785156 153.558594 170.472656 156.1875 C 170.605469 156.339844 170.753906 156.476562 170.917969 156.601562 C 171.078125 156.722656 171.25 156.828125 171.4375 156.914062 C 171.621094 157 171.8125 157.066406 172.007812 157.113281 C 172.207031 157.160156 172.40625 157.183594 172.609375 157.1875 C 172.8125 157.191406 173.015625 157.175781 173.214844 157.136719 C 173.414062 157.097656 173.609375 157.039062 173.796875 156.957031 C 173.984375 156.878906 174.160156 156.78125 174.328125 156.664062 C 174.492188 156.546875 174.644531 156.414062 174.785156 156.265625 L 181.308594 150.808594 C 182.046875 151.113281 182.746094 151.425781 183.464844 151.710938 C 185.578125 152.59375 189.109375 153.4375 191.078125 154.359375 C 191.132812 154.386719 191.179688 154.421875 191.222656 154.460938 L 191.222656 162.738281 C 191.261719 162.839844 191.308594 162.933594 191.367188 163.023438 C 192.703125 165.386719 196.023438 165.917969 198.035156 166.058594 C 198.519531 166.042969 198.976562 165.925781 199.40625 165.707031 C 199.835938 165.488281 200.203125 165.1875 200.5 164.808594 C 202.191406 165.160156 203.890625 165.195312 205.59375 164.917969 C 207.300781 164.636719 208.898438 164.0625 210.390625 163.1875 C 212.058594 162.234375 213.800781 161.457031 215.625 160.847656 C 223.792969 158.203125 227.816406 153.644531 228.25 146.542969 C 228.265625 146.214844 228.511719 145.621094 229.539062 144.71875 C 232.742188 141.863281 236.210938 137.921875 234.691406 132.605469 C 234.304688 131.101562 234.214844 129.578125 234.425781 128.035156 C 234.632812 126.492188 235.128906 125.046875 235.902344 123.699219 C 236.367188 122.6875 236.675781 121.628906 236.824219 120.527344 C 236.972656 119.421875 236.960938 118.320312 236.777344 117.222656 C 236.597656 116.121094 236.261719 115.074219 235.769531 114.074219 C 235.277344 113.074219 234.648438 112.171875 233.882812 111.359375 Z M 191.214844 133.769531 C 186.535156 130.570312 181.546875 125.007812 181.6875 118.625 C 181.8125 112.464844 186.386719 106.988281 191.214844 103.785156 Z M 184.046875 145.449219 C 181.011719 143.832031 180.457031 143.765625 177.890625 146.105469 C 176.679688 147.214844 175.429688 148.261719 174.320312 149.207031 C 173.929688 149.535156 173.539062 149.863281 173.195312 150.171875 L 168.328125 145.921875 L 169.867188 144.136719 C 171.160156 142.621094 172.371094 141.183594 173.664062 139.785156 C 173.949219 139.488281 174.175781 139.148438 174.347656 138.773438 C 174.519531 138.394531 174.621094 138 174.660156 137.589844 C 174.695312 137.175781 174.664062 136.769531 174.566406 136.371094 C 174.464844 135.96875 174.300781 135.59375 174.074219 135.25 C 172.742188 132.253906 171.46875 129.070312 170.21875 125.519531 C 170.128906 125.132812 169.984375 124.769531 169.777344 124.429688 C 169.566406 124.089844 169.308594 123.796875 169.003906 123.542969 C 168.695312 123.289062 168.359375 123.09375 167.984375 122.953125 C 167.613281 122.816406 167.226562 122.738281 166.832031 122.730469 C 164.203125 122.585938 162.007812 122.421875 159.8125 122.136719 C 159.277344 122.054688 158.476562 121.476562 158.457031 121.234375 C 158.351562 119.824219 158.316406 118.414062 158.355469 117.003906 C 158.375 116.554688 158.375 116.101562 158.375 115.648438 L 160.902344 115.402344 C 162.972656 115.199219 164.941406 114.992188 166.890625 114.871094 C 167.289062 114.855469 167.667969 114.777344 168.039062 114.632812 C 168.40625 114.492188 168.742188 114.292969 169.046875 114.039062 C 169.351562 113.78125 169.601562 113.484375 169.808594 113.148438 C 170.011719 112.808594 170.15625 112.445312 170.238281 112.058594 C 171.488281 108.488281 172.722656 105.367188 174.035156 102.535156 C 174.253906 102.183594 174.40625 101.808594 174.5 101.40625 C 174.597656 101.003906 174.625 100.59375 174.585938 100.183594 C 174.546875 99.773438 174.441406 99.378906 174.273438 99 C 174.105469 98.625 173.882812 98.28125 173.605469 97.976562 C 172.289062 96.5 171.058594 94.980469 169.847656 93.503906 C 169.375 92.949219 168.925781 92.375 168.472656 91.839844 L 173.007812 87.304688 C 173.542969 87.757812 174.074219 88.1875 174.609375 88.636719 C 176.027344 89.789062 177.460938 91 178.859375 92.230469 C 179.171875 92.53125 179.527344 92.769531 179.925781 92.945312 C 180.324219 93.121094 180.738281 93.222656 181.175781 93.25 C 181.609375 93.28125 182.035156 93.234375 182.449219 93.109375 C 182.867188 92.988281 183.25 92.796875 183.601562 92.539062 C 185.589844 91.492188 188.976562 90.546875 191.214844 89.6875 L 191.214844 97.28125 C 183.007812 101.160156 175.71875 109.988281 176.027344 119.46875 C 176.355469 129.445312 184.015625 137.160156 191.214844 140.464844 L 191.214844 148.164062 C 188.773438 147.40625 186.382812 146.5 184.046875 145.449219 Z M 228.894531 124.703125 C 226.820312 126.960938 220.644531 127.65625 218.570312 125.871094 C 218.246094 125.59375 218 125.257812 217.835938 124.867188 C 215.554688 118.480469 210.035156 116.839844 205.476562 116.144531 C 204.480469 115.894531 203.550781 116.046875 202.683594 116.59375 C 202.074219 117.101562 201.753906 117.75 201.71875 118.542969 C 201.457031 120.988281 203.34375 121.5625 204.800781 121.785156 C 208.230469 122.300781 210.359375 123.261719 211.511719 124.867188 C 212.125 125.960938 212.5 127.128906 212.640625 128.375 C 212.777344 129.621094 212.667969 130.847656 212.3125 132.050781 C 212.3125 132.070312 212.292969 132.089844 212.292969 132.109375 C 212.261719 132.167969 212.25 132.230469 212.25 132.296875 C 212.152344 132.671875 212.132812 133.050781 212.1875 133.4375 C 212.242188 133.820312 212.367188 134.179688 212.566406 134.511719 C 212.765625 134.847656 213.019531 135.128906 213.332031 135.363281 C 213.640625 135.59375 213.988281 135.757812 214.363281 135.851562 C 214.546875 135.917969 214.734375 135.960938 214.929688 135.988281 C 215.121094 136.011719 215.316406 136.015625 215.511719 136 C 215.707031 135.980469 215.894531 135.945312 216.082031 135.886719 C 216.269531 135.828125 216.445312 135.753906 216.617188 135.65625 C 216.785156 135.558594 216.941406 135.445312 217.089844 135.316406 C 217.234375 135.183594 217.363281 135.039062 217.476562 134.882812 C 217.589844 134.722656 217.6875 134.554688 217.765625 134.375 C 217.84375 134.195312 217.898438 134.011719 217.9375 133.820312 C 218.058594 133.410156 218.203125 133.019531 218.328125 132.628906 L 218.449219 132.257812 C 218.941406 132.300781 219.433594 132.363281 219.90625 132.402344 C 221.101562 132.546875 222.296875 132.605469 223.5 132.589844 C 224.746094 132.515625 225.984375 132.355469 227.214844 132.113281 C 227.664062 132.035156 228.136719 131.972656 228.609375 131.890625 C 228.90625 132.503906 229.089844 133.148438 229.160156 133.828125 C 229.226562 134.503906 229.175781 135.171875 229.007812 135.832031 C 228.839844 136.492188 228.5625 137.101562 228.175781 137.664062 C 227.789062 138.222656 227.316406 138.703125 226.761719 139.09375 C 226.703125 138.953125 226.640625 138.804688 226.578125 138.640625 C 226.375 138.109375 226.148438 137.578125 225.921875 137.0625 C 225.589844 136.113281 224.960938 135.441406 224.035156 135.050781 C 223.257812 134.8125 222.519531 134.894531 221.816406 135.296875 C 221.628906 135.375 221.449219 135.476562 221.28125 135.597656 C 221.117188 135.71875 220.964844 135.855469 220.828125 136.007812 C 220.691406 136.164062 220.574219 136.332031 220.476562 136.511719 C 220.378906 136.691406 220.300781 136.878906 220.242188 137.078125 C 220.1875 137.273438 220.152344 137.476562 220.140625 137.679688 C 220.125 137.886719 220.136719 138.089844 220.171875 138.292969 C 220.203125 138.496094 220.257812 138.691406 220.335938 138.882812 C 220.410156 139.074219 220.507812 139.253906 220.625 139.421875 L 220.667969 139.503906 C 221.167969 140.519531 221.605469 141.558594 221.980469 142.625 C 223.5 147.140625 221.941406 151.800781 218.410156 153.296875 C 218.140625 152.953125 217.898438 152.582031 217.648438 152.210938 C 217.183594 151.300781 216.507812 150.597656 215.617188 150.097656 C 215.316406 149.964844 215 149.894531 214.671875 149.890625 C 214.386719 149.890625 214.113281 149.953125 213.851562 150.074219 C 212.882812 150.71875 212.265625 151.605469 212.003906 152.742188 C 211.953125 152.882812 211.890625 153.019531 211.824219 153.152344 C 211.777344 153.214844 211.742188 153.28125 211.71875 153.359375 C 211.152344 154.667969 210.355469 155.8125 209.328125 156.800781 C 208.296875 157.785156 207.117188 158.535156 205.785156 159.042969 C 204.433594 159.425781 203.058594 159.53125 201.660156 159.355469 C 200.265625 159.183594 198.957031 158.742188 197.742188 158.039062 C 197.175781 157.699219 196.828125 157.203125 196.695312 156.558594 C 196.613281 154.507812 196.613281 152.453125 196.632812 150.300781 C 196.632812 149.640625 196.652344 148.964844 196.652344 148.289062 C 197 148.351562 197.332031 148.410156 197.660156 148.492188 C 198.542969 148.65625 199.363281 148.820312 200.203125 148.902344 C 205.050781 149.398438 208.453125 147.960938 210.671875 144.492188 C 210.804688 144.335938 210.917969 144.167969 211.015625 143.984375 C 211.109375 143.804688 211.183594 143.613281 211.238281 143.417969 C 211.292969 143.21875 211.324219 143.015625 211.335938 142.8125 C 211.34375 142.605469 211.332031 142.402344 211.296875 142.203125 C 211.261719 142 211.203125 141.804688 211.125 141.613281 C 211.046875 141.425781 210.949219 141.246094 210.832031 141.078125 C 210.714844 140.910156 210.578125 140.757812 210.425781 140.617188 C 210.273438 140.480469 210.109375 140.359375 209.933594 140.257812 C 209.335938 139.777344 208.660156 139.59375 207.898438 139.703125 C 207.050781 139.925781 206.421875 140.425781 206.015625 141.199219 C 205.734375 141.628906 205.394531 142.003906 205 142.324219 C 204.601562 142.644531 204.160156 142.894531 203.683594 143.074219 C 203.207031 143.257812 202.710938 143.359375 202.199219 143.382812 C 201.691406 143.40625 201.1875 143.351562 200.695312 143.214844 C 199.71875 143.039062 198.769531 142.773438 197.84375 142.417969 L 196.796875 142.050781 L 196.796875 135.132812 C 197.535156 134.992188 198.25 134.867188 198.953125 134.742188 C 200.734375 134.414062 202.441406 134.109375 204.125 133.675781 C 205.003906 133.5 205.675781 133.027344 206.136719 132.257812 C 206.460938 131.566406 206.476562 130.867188 206.175781 130.164062 C 206.125 129.957031 206.050781 129.757812 205.953125 129.5625 C 205.859375 129.371094 205.742188 129.195312 205.601562 129.027344 C 205.464844 128.863281 205.3125 128.714844 205.140625 128.585938 C 204.972656 128.453125 204.789062 128.34375 204.59375 128.257812 C 204.398438 128.167969 204.195312 128.101562 203.984375 128.058594 C 203.773438 128.015625 203.558594 127.996094 203.34375 128.003906 C 203.128906 128.007812 202.917969 128.035156 202.710938 128.089844 C 202.503906 128.144531 202.304688 128.21875 202.113281 128.316406 C 200.984375 128.644531 199.835938 128.839844 198.664062 128.910156 L 198.292969 128.933594 C 197.828125 129.039062 197.402344 128.949219 197.019531 128.664062 C 196.65625 128.195312 196.519531 127.671875 196.609375 127.085938 C 196.691406 121.972656 196.691406 116.988281 196.609375 112.265625 C 196.535156 111.632812 196.710938 111.078125 197.144531 110.601562 C 197.496094 110.320312 197.894531 110.226562 198.335938 110.316406 C 200.535156 110.621094 202.675781 111.152344 204.757812 111.917969 C 206.339844 112.492188 207.9375 112.757812 208.964844 110.972656 C 209.386719 110.3125 209.503906 109.601562 209.3125 108.839844 C 208.960938 107.886719 208.316406 107.210938 207.386719 106.808594 C 205.804688 105.851562 204.109375 105.191406 202.296875 104.828125 C 200.484375 104.46875 198.664062 104.421875 196.835938 104.695312 L 196.835938 99.253906 C 197.289062 99.292969 197.738281 99.335938 198.167969 99.375 C 199.253906 99.527344 200.339844 99.59375 201.433594 99.582031 C 202.015625 99.617188 202.585938 99.5625 203.148438 99.414062 C 203.710938 99.269531 204.234375 99.042969 204.726562 98.730469 C 205.214844 98.417969 205.644531 98.039062 206.015625 97.59375 C 206.386719 97.144531 206.679688 96.652344 206.890625 96.113281 C 207.054688 95.566406 207.078125 95.011719 206.960938 94.453125 C 206.84375 93.890625 206.605469 93.394531 206.238281 92.953125 C 205.554688 92.488281 204.804688 92.28125 203.980469 92.339844 C 203.613281 92.3125 203.292969 92.421875 203.015625 92.664062 C 201.308594 94.53125 199.6875 94 197.78125 93.363281 C 197.414062 93.261719 197.039062 93.136719 196.671875 93.015625 C 196.671875 92.050781 196.652344 91.0625 196.652344 90.097656 C 196.628906 87.679688 196.609375 85.402344 196.691406 83.0625 C 196.726562 82.476562 196.859375 81.914062 197.089844 81.375 C 197.320312 80.832031 197.632812 80.347656 198.03125 79.917969 C 198.429688 79.488281 198.890625 79.136719 199.410156 78.867188 C 199.929688 78.59375 200.480469 78.421875 201.0625 78.339844 C 201.617188 78.230469 202.171875 78.214844 202.730469 78.292969 C 203.285156 78.371094 203.816406 78.539062 204.316406 78.796875 C 204.816406 79.054688 205.261719 79.386719 205.652344 79.792969 C 206.042969 80.199219 206.351562 80.660156 206.585938 81.171875 C 206.96875 82.398438 207.089844 83.652344 206.953125 84.929688 C 206.871094 86.324219 207.039062 87.824219 208.800781 88.398438 C 209.144531 88.527344 209.503906 88.582031 209.871094 88.574219 C 210.238281 88.5625 210.589844 88.480469 210.925781 88.335938 C 211.261719 88.1875 211.558594 87.980469 211.816406 87.71875 C 212.074219 87.457031 212.273438 87.15625 212.414062 86.816406 C 212.839844 86.234375 213.414062 85.933594 214.136719 85.917969 C 214.53125 85.941406 214.921875 86.003906 215.304688 86.105469 C 215.6875 86.203125 216.058594 86.335938 216.417969 86.5 C 216.777344 86.667969 217.117188 86.867188 217.4375 87.097656 C 217.761719 87.328125 218.058594 87.582031 218.332031 87.867188 C 218.609375 88.152344 218.855469 88.460938 219.070312 88.792969 C 219.289062 89.121094 219.476562 89.46875 219.628906 89.832031 C 219.78125 90.199219 219.902344 90.574219 219.984375 90.960938 C 220.070312 91.347656 220.117188 91.738281 220.132812 92.132812 C 220.15625 92.570312 220.136719 93.003906 220.074219 93.4375 C 220.011719 93.871094 219.90625 94.292969 219.757812 94.703125 C 219.613281 95.117188 219.425781 95.507812 219.199219 95.882812 C 218.976562 96.257812 218.714844 96.605469 218.417969 96.929688 C 218.125 97.25 217.800781 97.539062 217.445312 97.796875 C 217.09375 98.054688 216.71875 98.277344 216.320312 98.457031 C 215.921875 98.640625 215.511719 98.78125 215.085938 98.882812 C 214.660156 98.980469 214.226562 99.039062 213.789062 99.050781 C 211.613281 99.335938 210.628906 100.324219 210.753906 102.070312 C 210.765625 102.863281 211.066406 103.527344 211.65625 104.058594 C 212.476562 104.652344 213.386719 104.871094 214.386719 104.714844 C 216.097656 104.640625 217.710938 104.199219 219.226562 103.390625 C 220.738281 102.585938 222.003906 101.496094 223.027344 100.117188 C 224.070312 98.683594 224.875 98.824219 226.164062 99.664062 C 226.726562 100.015625 227.214844 100.453125 227.621094 100.972656 C 228.03125 101.496094 228.335938 102.070312 228.542969 102.703125 C 228.746094 103.332031 228.839844 103.976562 228.8125 104.640625 C 228.789062 105.304688 228.652344 105.941406 228.40625 106.554688 C 228.179688 107.1875 227.875 107.777344 227.488281 108.328125 C 227.101562 108.875 226.648438 109.359375 226.125 109.78125 C 225.605469 110.203125 225.035156 110.546875 224.417969 110.8125 C 223.800781 111.078125 223.160156 111.253906 222.496094 111.339844 C 221.386719 111.359375 220.453125 111.777344 219.703125 112.59375 C 219.265625 113.222656 219.128906 113.914062 219.292969 114.664062 C 219.359375 115.507812 219.742188 116.171875 220.441406 116.65625 C 221.386719 117.1875 222.371094 117.285156 223.394531 116.941406 C 224.8125 116.546875 226.203125 116.066406 227.566406 115.507812 C 228.117188 115.277344 228.691406 115.054688 229.269531 114.847656 C 229.8125 115.265625 230.246094 115.769531 230.570312 116.371094 C 230.898438 116.972656 231.085938 117.613281 231.132812 118.296875 C 231.207031 119.46875 231.050781 120.613281 230.664062 121.726562 C 230.273438 122.835938 229.683594 123.828125 228.894531 124.703125 Z M 228.894531 124.703125 "/></g><g style="fill:#cbd5e1;fill-opacity:1;"><g transform="translate(70.486011, 284.203633)"><path style="stroke:none" d="M 6.9375 -10.5 C 6.351562 -10.5 6 -10.421875 5.875 -10.265625 C 5.757812 -10.117188 5.703125 -9.660156 5.703125 -8.890625 L 5.703125 -8.65625 C 5.703125 -6.945312 5.722656 -5.5625 5.765625 -4.5 C 5.804688 -3.4375 5.867188 -2.753906 5.953125 -2.453125 C 6.015625 -2.203125 6.394531 -1.96875 7.09375 -1.75 C 7.800781 -1.539062 8.628906 -1.4375 9.578125 -1.4375 C 11.210938 -1.4375 12.503906 -1.816406 13.453125 -2.578125 C 14.410156 -3.335938 14.890625 -4.367188 14.890625 -5.671875 C 14.890625 -7.359375 14.257812 -8.582031 13 -9.34375 C 11.75 -10.113281 9.726562 -10.5 6.9375 -10.5 Z M 5.703125 -15.078125 L 5.703125 -13.34375 C 5.703125 -12.78125 5.765625 -12.425781 5.890625 -12.28125 C 6.015625 -12.144531 6.363281 -12.078125 6.9375 -12.078125 C 9.320312 -12.078125 11.046875 -12.410156 12.109375 -13.078125 C 13.179688 -13.753906 13.71875 -14.832031 13.71875 -16.3125 C 13.71875 -17.6875 13.273438 -18.734375 12.390625 -19.453125 C 11.515625 -20.171875 10.21875 -20.53125 8.5 -20.53125 C 7.664062 -20.53125 7.050781 -20.5 6.65625 -20.4375 C 6.269531 -20.382812 6.039062 -20.296875 5.96875 -20.171875 C 5.875 -19.972656 5.804688 -19.453125 5.765625 -18.609375 C 5.722656 -17.765625 5.703125 -16.585938 5.703125 -15.078125 Z M 16.765625 -16.765625 C 16.765625 -15.773438 16.515625 -14.890625 16.015625 -14.109375 C 15.515625 -13.335938 14.773438 -12.703125 13.796875 -12.203125 C 13.460938 -12.035156 13.09375 -11.890625 12.6875 -11.765625 C 12.28125 -11.640625 12.078125 -11.535156 12.078125 -11.453125 C 12.078125 -11.328125 12.347656 -11.210938 12.890625 -11.109375 C 13.128906 -11.066406 13.320312 -11.035156 13.46875 -11.015625 C 14.945312 -10.679688 16.070312 -10.070312 16.84375 -9.1875 C 17.613281 -8.3125 18 -7.195312 18 -5.84375 C 18 -3.957031 17.300781 -2.5 15.90625 -1.46875 C 14.519531 -0.445312 12.550781 0.0625 10 0.0625 C 9.363281 0.0625 8.535156 0.0351562 7.515625 -0.015625 C 6.503906 -0.0664062 5.816406 -0.09375 5.453125 -0.09375 C 4.960938 -0.09375 4.425781 -0.078125 3.84375 -0.046875 C 3.269531 -0.015625 2.945312 0 2.875 0 C 2.207031 0 1.707031 -0.0703125 1.375 -0.21875 C 1.050781 -0.375 0.890625 -0.609375 0.890625 -0.921875 C 0.890625 -1.210938 1.171875 -1.445312 1.734375 -1.625 C 2.304688 -1.8125 2.628906 -1.960938 2.703125 -2.078125 C 2.859375 -2.273438 2.96875 -2.988281 3.03125 -4.21875 C 3.101562 -5.457031 3.140625 -7.722656 3.140625 -11.015625 C 3.140625 -14.265625 3.101562 -16.503906 3.03125 -17.734375 C 2.96875 -18.960938 2.859375 -19.675781 2.703125 -19.875 C 2.628906 -19.976562 2.304688 -20.125 1.734375 -20.3125 C 1.171875 -20.5 0.890625 -20.726562 0.890625 -21 C 0.890625 -21.238281 0.984375 -21.429688 1.171875 -21.578125 C 1.367188 -21.734375 1.644531 -21.835938 2 -21.890625 C 2 -21.890625 2.046875 -21.890625 2.140625 -21.890625 C 4.210938 -22.003906 6.679688 -22.0625 9.546875 -22.0625 C 11.773438 -22.0625 13.535156 -21.582031 14.828125 -20.625 C 16.117188 -19.675781 16.765625 -18.390625 16.765625 -16.765625 Z M 16.765625 -16.765625 "/></g></g><g style="fill:#cbd5e1;fill-opacity:1;"><g transform="translate(89.169462, 284.203633)"><path style="stroke:none" d="M 12.328125 0.609375 C 11.078125 0.609375 9.882812 0.421875 8.75 0.046875 C 7.613281 -0.316406 6.585938 -0.851562 5.671875 -1.5625 C 4.265625 -2.644531 3.164062 -4.035156 2.375 -5.734375 C 1.59375 -7.441406 1.203125 -9.285156 1.203125 -11.265625 C 1.203125 -12.554688 1.378906 -13.78125 1.734375 -14.9375 C 2.097656 -16.09375 2.625 -17.148438 3.3125 -18.109375 C 4.269531 -19.460938 5.515625 -20.515625 7.046875 -21.265625 C 8.578125 -22.023438 10.253906 -22.40625 12.078125 -22.40625 C 13.335938 -22.40625 14.523438 -22.207031 15.640625 -21.8125 C 16.765625 -21.414062 17.789062 -20.835938 18.71875 -20.078125 C 20.019531 -19.003906 21.03125 -17.628906 21.75 -15.953125 C 22.476562 -14.273438 22.84375 -12.460938 22.84375 -10.515625 C 22.84375 -9.203125 22.675781 -7.96875 22.34375 -6.8125 C 22.007812 -5.65625 21.515625 -4.609375 20.859375 -3.671875 C 19.898438 -2.304688 18.6875 -1.25 17.21875 -0.5 C 15.75 0.238281 14.117188 0.609375 12.328125 0.609375 Z M 19.890625 -9.671875 C 19.890625 -10.972656 19.734375 -12.222656 19.421875 -13.421875 C 19.109375 -14.628906 18.664062 -15.6875 18.09375 -16.59375 C 17.25 -17.9375 16.242188 -18.960938 15.078125 -19.671875 C 13.910156 -20.378906 12.648438 -20.734375 11.296875 -20.734375 C 9.140625 -20.734375 7.410156 -19.953125 6.109375 -18.390625 C 4.816406 -16.835938 4.171875 -14.753906 4.171875 -12.140625 C 4.171875 -10.828125 4.328125 -9.550781 4.640625 -8.3125 C 4.960938 -7.082031 5.425781 -5.976562 6.03125 -5 C 6.8125 -3.707031 7.757812 -2.726562 8.875 -2.0625 C 9.988281 -1.394531 11.25 -1.0625 12.65625 -1.0625 C 14.875 -1.0625 16.632812 -1.832031 17.9375 -3.375 C 19.238281 -4.925781 19.890625 -7.023438 19.890625 -9.671875 Z M 19.890625 -9.671875 "/></g></g><g style="fill:#cbd5e1;fill-opacity:1;"><g transform="translate(113.237278, 284.203633)"><path style="stroke:none" d="M 7.59375 -17.0625 L 7.59375 -18.296875 C 7.59375 -19.148438 7.535156 -19.671875 7.421875 -19.859375 C 7.304688 -20.054688 7 -20.15625 6.5 -20.15625 L 4.921875 -20.15625 C 4.316406 -20.15625 3.851562 -20.078125 3.53125 -19.921875 C 3.21875 -19.773438 2.929688 -19.503906 2.671875 -19.109375 C 2.492188 -18.828125 2.285156 -18.394531 2.046875 -17.8125 C 1.648438 -16.84375 1.257812 -16.359375 0.875 -16.359375 C 0.65625 -16.359375 0.488281 -16.46875 0.375 -16.6875 C 0.257812 -16.914062 0.203125 -17.25 0.203125 -17.6875 C 0.203125 -18.976562 0.390625 -20.039062 0.765625 -20.875 C 1.140625 -21.707031 1.597656 -22.125 2.140625 -22.125 C 2.179688 -22.125 2.28125 -22.101562 2.4375 -22.0625 C 2.988281 -21.925781 3.519531 -21.859375 4.03125 -21.859375 L 13.59375 -21.859375 C 14.101562 -21.859375 14.632812 -21.925781 15.1875 -22.0625 C 15.34375 -22.101562 15.445312 -22.125 15.5 -22.125 C 16.050781 -22.125 16.515625 -21.703125 16.890625 -20.859375 C 17.265625 -20.023438 17.453125 -18.96875 17.453125 -17.6875 C 17.453125 -17.257812 17.390625 -16.929688 17.265625 -16.703125 C 17.148438 -16.472656 16.984375 -16.359375 16.765625 -16.359375 C 16.367188 -16.359375 15.984375 -16.832031 15.609375 -17.78125 C 15.367188 -18.382812 15.160156 -18.828125 14.984375 -19.109375 C 14.722656 -19.503906 14.429688 -19.773438 14.109375 -19.921875 C 13.785156 -20.078125 13.320312 -20.15625 12.71875 -20.15625 L 11.125 -20.15625 C 10.632812 -20.15625 10.332031 -20.066406 10.21875 -19.890625 C 10.113281 -19.722656 10.0625 -19.257812 10.0625 -18.5 L 10.0625 -11.015625 C 10.0625 -7.722656 10.09375 -5.457031 10.15625 -4.21875 C 10.226562 -2.988281 10.34375 -2.273438 10.5 -2.078125 C 10.570312 -1.960938 10.890625 -1.8125 11.453125 -1.625 C 12.015625 -1.445312 12.296875 -1.210938 12.296875 -0.921875 C 12.296875 -0.554688 12.023438 -0.289062 11.484375 -0.125 C 10.953125 0.0390625 10.066406 0.125 8.828125 0.125 C 7.585938 0.125 6.691406 0.0390625 6.140625 -0.125 C 5.597656 -0.289062 5.328125 -0.554688 5.328125 -0.921875 C 5.328125 -1.210938 5.609375 -1.445312 6.171875 -1.625 C 6.734375 -1.8125 7.0625 -1.96875 7.15625 -2.09375 C 7.3125 -2.289062 7.421875 -3.050781 7.484375 -4.375 C 7.554688 -5.695312 7.59375 -7.910156 7.59375 -11.015625 Z M 7.59375 -17.0625 "/></g></g><g style="fill:#cbd5e1;fill-opacity:1;"><g transform="translate(130.890933, 284.203633)"><path style="stroke:none" d="M 5.671875 -11.5 C 5.992188 -11.414062 6.304688 -11.351562 6.609375 -11.3125 C 6.910156 -11.28125 7.195312 -11.265625 7.46875 -11.265625 C 9.5625 -11.265625 11.125 -11.65625 12.15625 -12.4375 C 13.195312 -13.226562 13.71875 -14.414062 13.71875 -16 C 13.71875 -17.53125 13.285156 -18.664062 12.421875 -19.40625 C 11.566406 -20.15625 10.257812 -20.53125 8.5 -20.53125 C 7.332031 -20.53125 6.617188 -20.488281 6.359375 -20.40625 C 6.097656 -20.332031 5.9375 -20.179688 5.875 -19.953125 C 5.8125 -19.710938 5.757812 -18.84375 5.71875 -17.34375 C 5.6875 -15.84375 5.671875 -13.894531 5.671875 -11.5 Z M 16.734375 -16.28125 C 16.734375 -14.21875 15.953125 -12.628906 14.390625 -11.515625 C 12.828125 -10.410156 10.601562 -9.859375 7.71875 -9.859375 C 7.550781 -9.859375 7.347656 -9.867188 7.109375 -9.890625 C 6.867188 -9.910156 6.722656 -9.921875 6.671875 -9.921875 C 6.203125 -9.921875 5.914062 -9.84375 5.8125 -9.6875 C 5.71875 -9.539062 5.671875 -9.070312 5.671875 -8.28125 L 5.671875 -8.015625 C 5.671875 -6.066406 5.703125 -4.632812 5.765625 -3.71875 C 5.828125 -2.8125 5.921875 -2.269531 6.046875 -2.09375 C 6.140625 -1.96875 6.46875 -1.8125 7.03125 -1.625 C 7.59375 -1.445312 7.875 -1.210938 7.875 -0.921875 C 7.875 -0.554688 7.597656 -0.289062 7.046875 -0.125 C 6.503906 0.0390625 5.613281 0.125 4.375 0.125 C 3.132812 0.125 2.242188 0.0390625 1.703125 -0.125 C 1.160156 -0.289062 0.890625 -0.554688 0.890625 -0.921875 C 0.890625 -1.210938 1.171875 -1.445312 1.734375 -1.625 C 2.304688 -1.8125 2.628906 -1.960938 2.703125 -2.078125 C 2.859375 -2.273438 2.96875 -2.988281 3.03125 -4.21875 C 3.101562 -5.457031 3.140625 -7.722656 3.140625 -11.015625 C 3.140625 -14.265625 3.101562 -16.503906 3.03125 -17.734375 C 2.96875 -18.960938 2.859375 -19.675781 2.703125 -19.875 C 2.628906 -19.976562 2.304688 -20.125 1.734375 -20.3125 C 1.171875 -20.5 0.890625 -20.726562 0.890625 -21 C 0.890625 -21.238281 0.984375 -21.429688 1.171875 -21.578125 C 1.367188 -21.734375 1.644531 -21.835938 2 -21.890625 C 2 -21.890625 2.046875 -21.890625 2.140625 -21.890625 C 4.210938 -22.003906 6.679688 -22.0625 9.546875 -22.0625 C 11.828125 -22.0625 13.59375 -21.554688 14.84375 -20.546875 C 16.101562 -19.535156 16.734375 -18.113281 16.734375 -16.28125 Z M 16.734375 -16.28125 "/></g></g><g style="fill:#cbd5e1;fill-opacity:1;"><g transform="translate(147.558931, 284.203633)"><path style="stroke:none" d="M 6.703125 -9.078125 C 7.085938 -9.097656 7.519531 -9.113281 8 -9.125 C 8.488281 -9.132812 9.253906 -9.140625 10.296875 -9.140625 C 11.410156 -9.140625 12.265625 -9.132812 12.859375 -9.125 C 13.453125 -9.113281 14.007812 -9.09375 14.53125 -9.0625 C 13.769531 -11.050781 13.050781 -12.835938 12.375 -14.421875 C 11.695312 -16.003906 11.148438 -17.195312 10.734375 -18 L 10.515625 -18 C 10.148438 -17.300781 9.65625 -16.226562 9.03125 -14.78125 C 8.40625 -13.332031 7.628906 -11.429688 6.703125 -9.078125 Z M 10.515625 -7.421875 L 8.953125 -7.421875 C 7.816406 -7.421875 7.066406 -7.390625 6.703125 -7.328125 C 6.335938 -7.265625 6.101562 -7.160156 6 -7.015625 C 5.9375 -6.929688 5.859375 -6.789062 5.765625 -6.59375 C 5.671875 -6.394531 5.515625 -6.015625 5.296875 -5.453125 C 5.253906 -5.347656 5.195312 -5.195312 5.125 -5 C 4.675781 -3.914062 4.453125 -3.21875 4.453125 -2.90625 C 4.453125 -2.632812 4.519531 -2.414062 4.65625 -2.25 C 4.800781 -2.082031 5.023438 -1.945312 5.328125 -1.84375 C 5.429688 -1.800781 5.570312 -1.75 5.75 -1.6875 C 6.394531 -1.46875 6.71875 -1.210938 6.71875 -0.921875 C 6.71875 -0.554688 6.445312 -0.289062 5.90625 -0.125 C 5.363281 0.0390625 4.46875 0.125 3.21875 0.125 C 1.988281 0.125 1.101562 0.0390625 0.5625 -0.125 C 0.03125 -0.289062 -0.234375 -0.554688 -0.234375 -0.921875 C -0.234375 -1.222656 0.0859375 -1.46875 0.734375 -1.65625 C 1.035156 -1.75 1.257812 -1.832031 1.40625 -1.90625 C 1.894531 -2.207031 2.492188 -3.222656 3.203125 -4.953125 L 3.28125 -5.15625 C 3.945312 -6.769531 4.84375 -8.925781 5.96875 -11.625 C 8.382812 -17.425781 9.660156 -20.632812 9.796875 -21.25 C 9.804688 -21.3125 9.828125 -21.40625 9.859375 -21.53125 C 9.953125 -22 10.269531 -22.234375 10.8125 -22.234375 C 11.132812 -22.234375 11.390625 -22.160156 11.578125 -22.015625 C 11.765625 -21.878906 12 -21.507812 12.28125 -20.90625 C 13.394531 -18.4375 14.972656 -14.597656 17.015625 -9.390625 C 17.972656 -6.929688 18.695312 -5.09375 19.1875 -3.875 C 19.226562 -3.78125 19.273438 -3.671875 19.328125 -3.546875 C 19.691406 -2.617188 20.070312 -2.050781 20.46875 -1.84375 C 20.582031 -1.78125 20.773438 -1.707031 21.046875 -1.625 C 21.617188 -1.4375 21.90625 -1.191406 21.90625 -0.890625 C 21.90625 -0.546875 21.597656 -0.289062 20.984375 -0.125 C 20.367188 0.0390625 19.40625 0.125 18.09375 0.125 C 16.757812 0.125 15.785156 0.0390625 15.171875 -0.125 C 14.566406 -0.289062 14.265625 -0.546875 14.265625 -0.890625 C 14.265625 -1.191406 14.613281 -1.460938 15.3125 -1.703125 C 15.457031 -1.753906 15.578125 -1.800781 15.671875 -1.84375 C 15.953125 -1.882812 16.160156 -1.988281 16.296875 -2.15625 C 16.441406 -2.320312 16.515625 -2.550781 16.515625 -2.84375 C 16.515625 -3.15625 16.390625 -3.703125 16.140625 -4.484375 C 15.898438 -5.265625 15.582031 -6.039062 15.1875 -6.8125 C 15.0625 -7.039062 14.804688 -7.195312 14.421875 -7.28125 C 14.035156 -7.375 13.285156 -7.421875 12.171875 -7.421875 Z M 10.515625 -7.421875 "/></g></g><g style="fill:#cbd5e1;fill-opacity:1;"><g transform="translate(168.831586, 284.203633)"><path style="stroke:none" d="M 5.71875 -12 C 6.09375 -11.9375 6.414062 -11.890625 6.6875 -11.859375 C 6.96875 -11.828125 7.210938 -11.8125 7.421875 -11.8125 C 9.378906 -11.8125 10.875 -12.203125 11.90625 -12.984375 C 12.945312 -13.773438 13.46875 -14.910156 13.46875 -16.390625 C 13.46875 -17.703125 13.019531 -18.71875 12.125 -19.4375 C 11.238281 -20.164062 9.976562 -20.53125 8.34375 -20.53125 L 7.875 -20.53125 C 7.0625 -20.53125 6.546875 -20.492188 6.328125 -20.421875 C 6.109375 -20.347656 5.96875 -20.203125 5.90625 -19.984375 C 5.84375 -19.742188 5.796875 -18.957031 5.765625 -17.625 C 5.734375 -16.289062 5.71875 -14.414062 5.71875 -12 Z M 11.78125 -10.9375 C 12.894531 -10.5625 13.773438 -10.015625 14.421875 -9.296875 C 15.078125 -8.578125 15.601562 -7.566406 16 -6.265625 C 16.164062 -5.722656 16.363281 -5.007812 16.59375 -4.125 C 17.019531 -2.351562 17.585938 -1.46875 18.296875 -1.46875 C 18.472656 -1.46875 18.6875 -1.507812 18.9375 -1.59375 C 19.195312 -1.675781 19.375 -1.71875 19.46875 -1.71875 C 19.632812 -1.71875 19.765625 -1.660156 19.859375 -1.546875 C 19.960938 -1.441406 20.015625 -1.304688 20.015625 -1.140625 C 20.015625 -0.773438 19.738281 -0.441406 19.1875 -0.140625 C 18.632812 0.148438 17.984375 0.296875 17.234375 0.296875 C 16.765625 0.296875 16.34375 0.226562 15.96875 0.09375 C 15.601562 -0.0390625 15.296875 -0.242188 15.046875 -0.515625 C 14.578125 -1.023438 14.125 -2.140625 13.6875 -3.859375 C 13.5625 -4.347656 13.457031 -4.726562 13.375 -5 C 13.007812 -6.3125 12.628906 -7.3125 12.234375 -8 C 11.847656 -8.695312 11.363281 -9.242188 10.78125 -9.640625 C 10.382812 -9.921875 9.921875 -10.125 9.390625 -10.25 C 8.867188 -10.375 8.03125 -10.4375 6.875 -10.4375 C 6.300781 -10.4375 5.957031 -10.363281 5.84375 -10.21875 C 5.726562 -10.070312 5.671875 -9.660156 5.671875 -8.984375 L 5.671875 -8.34375 C 5.671875 -6.113281 5.695312 -4.554688 5.75 -3.671875 C 5.8125 -2.796875 5.910156 -2.269531 6.046875 -2.09375 C 6.140625 -1.96875 6.46875 -1.8125 7.03125 -1.625 C 7.59375 -1.445312 7.875 -1.210938 7.875 -0.921875 C 7.875 -0.554688 7.597656 -0.289062 7.046875 -0.125 C 6.503906 0.0390625 5.613281 0.125 4.375 0.125 C 3.132812 0.125 2.242188 0.0390625 1.703125 -0.125 C 1.160156 -0.289062 0.890625 -0.554688 0.890625 -0.921875 C 0.890625 -1.210938 1.171875 -1.445312 1.734375 -1.625 C 2.304688 -1.8125 2.628906 -1.960938 2.703125 -2.078125 C 2.859375 -2.273438 2.96875 -2.988281 3.03125 -4.21875 C 3.101562 -5.457031 3.140625 -7.722656 3.140625 -11.015625 C 3.140625 -14.265625 3.101562 -16.503906 3.03125 -17.734375 C 2.96875 -18.960938 2.859375 -19.675781 2.703125 -19.875 C 2.628906 -19.976562 2.304688 -20.125 1.734375 -20.3125 C 1.171875 -20.5 0.890625 -20.726562 0.890625 -21 C 0.890625 -21.238281 0.984375 -21.429688 1.171875 -21.578125 C 1.367188 -21.734375 1.644531 -21.835938 2 -21.890625 C 2 -21.890625 2.046875 -21.890625 2.140625 -21.890625 C 4.171875 -22.003906 6.5625 -22.0625 9.3125 -22.0625 C 11.476562 -22.0625 13.207031 -21.570312 14.5 -20.59375 C 15.800781 -19.625 16.453125 -18.347656 16.453125 -16.765625 C 16.453125 -15.472656 16.050781 -14.347656 15.25 -13.390625 C 14.457031 -12.441406 13.300781 -11.695312 11.78125 -11.15625 Z M 11.78125 -10.9375 "/></g></g><g style="fill:#cbd5e1;fill-opacity:1;"><g transform="translate(188.029941, 284.203633)"><path style="stroke:none" d="M 7.59375 -17.0625 L 7.59375 -18.296875 C 7.59375 -19.148438 7.535156 -19.671875 7.421875 -19.859375 C 7.304688 -20.054688 7 -20.15625 6.5 -20.15625 L 4.921875 -20.15625 C 4.316406 -20.15625 3.851562 -20.078125 3.53125 -19.921875 C 3.21875 -19.773438 2.929688 -19.503906 2.671875 -19.109375 C 2.492188 -18.828125 2.285156 -18.394531 2.046875 -17.8125 C 1.648438 -16.84375 1.257812 -16.359375 0.875 -16.359375 C 0.65625 -16.359375 0.488281 -16.46875 0.375 -16.6875 C 0.257812 -16.914062 0.203125 -17.25 0.203125 -17.6875 C 0.203125 -18.976562 0.390625 -20.039062 0.765625 -20.875 C 1.140625 -21.707031 1.597656 -22.125 2.140625 -22.125 C 2.179688 -22.125 2.28125 -22.101562 2.4375 -22.0625 C 2.988281 -21.925781 3.519531 -21.859375 4.03125 -21.859375 L 13.59375 -21.859375 C 14.101562 -21.859375 14.632812 -21.925781 15.1875 -22.0625 C 15.34375 -22.101562 15.445312 -22.125 15.5 -22.125 C 16.050781 -22.125 16.515625 -21.703125 16.890625 -20.859375 C 17.265625 -20.023438 17.453125 -18.96875 17.453125 -17.6875 C 17.453125 -17.257812 17.390625 -16.929688 17.265625 -16.703125 C 17.148438 -16.472656 16.984375 -16.359375 16.765625 -16.359375 C 16.367188 -16.359375 15.984375 -16.832031 15.609375 -17.78125 C 15.367188 -18.382812 15.160156 -18.828125 14.984375 -19.109375 C 14.722656 -19.503906 14.429688 -19.773438 14.109375 -19.921875 C 13.785156 -20.078125 13.320312 -20.15625 12.71875 -20.15625 L 11.125 -20.15625 C 10.632812 -20.15625 10.332031 -20.066406 10.21875 -19.890625 C 10.113281 -19.722656 10.0625 -19.257812 10.0625 -18.5 L 10.0625 -11.015625 C 10.0625 -7.722656 10.09375 -5.457031 10.15625 -4.21875 C 10.226562 -2.988281 10.34375 -2.273438 10.5 -2.078125 C 10.570312 -1.960938 10.890625 -1.8125 11.453125 -1.625 C 12.015625 -1.445312 12.296875 -1.210938 12.296875 -0.921875 C 12.296875 -0.554688 12.023438 -0.289062 11.484375 -0.125 C 10.953125 0.0390625 10.066406 0.125 8.828125 0.125 C 7.585938 0.125 6.691406 0.0390625 6.140625 -0.125 C 5.597656 -0.289062 5.328125 -0.554688 5.328125 -0.921875 C 5.328125 -1.210938 5.609375 -1.445312 6.171875 -1.625 C 6.734375 -1.8125 7.0625 -1.96875 7.15625 -2.09375 C 7.3125 -2.289062 7.421875 -3.050781 7.484375 -4.375 C 7.554688 -5.695312 7.59375 -7.910156 7.59375 -11.015625 Z M 7.59375 -17.0625 "/></g></g><g style="fill:#cbd5e1;fill-opacity:1;"><g transform="translate(205.683596, 284.203633)"><path style="stroke:none" d="M 4.734375 -18.0625 L 4.734375 -11.015625 C 4.734375 -8.085938 4.765625 -5.914062 4.828125 -4.5 C 4.898438 -3.09375 5.019531 -2.289062 5.1875 -2.09375 C 5.269531 -1.96875 5.59375 -1.8125 6.15625 -1.625 C 6.726562 -1.445312 7.015625 -1.210938 7.015625 -0.921875 C 7.015625 -0.566406 6.773438 -0.304688 6.296875 -0.140625 C 5.828125 0.015625 5.050781 0.09375 3.96875 0.09375 C 2.882812 0.09375 2.097656 0.015625 1.609375 -0.140625 C 1.117188 -0.304688 0.875 -0.566406 0.875 -0.921875 C 0.875 -1.210938 1.160156 -1.445312 1.734375 -1.625 C 2.304688 -1.8125 2.628906 -1.960938 2.703125 -2.078125 C 2.859375 -2.273438 2.96875 -2.988281 3.03125 -4.21875 C 3.101562 -5.457031 3.140625 -7.722656 3.140625 -11.015625 C 3.140625 -14.265625 3.101562 -16.503906 3.03125 -17.734375 C 2.96875 -18.960938 2.859375 -19.675781 2.703125 -19.875 C 2.628906 -19.976562 2.304688 -20.125 1.734375 -20.3125 C 1.160156 -20.5 0.875 -20.726562 0.875 -21 C 0.875 -21.34375 1.082031 -21.597656 1.5 -21.765625 C 1.925781 -21.941406 2.539062 -22.03125 3.34375 -22.03125 C 3.96875 -22.03125 4.445312 -21.957031 4.78125 -21.8125 C 5.113281 -21.664062 5.4375 -21.375 5.75 -20.9375 C 5.925781 -20.71875 6.273438 -20.253906 6.796875 -19.546875 C 10.703125 -14.242188 14.726562 -9.082031 18.875 -4.0625 L 18.875 -10.96875 C 18.875 -14.476562 18.835938 -16.789062 18.765625 -17.90625 C 18.703125 -19.019531 18.59375 -19.675781 18.4375 -19.875 C 18.363281 -19.976562 18.035156 -20.125 17.453125 -20.3125 C 16.878906 -20.5 16.59375 -20.726562 16.59375 -21 C 16.59375 -21.363281 16.835938 -21.625 17.328125 -21.78125 C 17.816406 -21.945312 18.597656 -22.03125 19.671875 -22.03125 C 20.765625 -22.03125 21.550781 -21.945312 22.03125 -21.78125 C 22.507812 -21.625 22.75 -21.363281 22.75 -21 C 22.75 -20.875 22.6875 -20.753906 22.5625 -20.640625 C 22.445312 -20.535156 22.257812 -20.4375 22 -20.34375 C 21.9375 -20.320312 21.835938 -20.289062 21.703125 -20.25 C 21.160156 -20.082031 20.859375 -19.875 20.796875 -19.625 C 20.691406 -19.238281 20.609375 -17.820312 20.546875 -15.375 C 20.492188 -12.9375 20.46875 -9.566406 20.46875 -5.265625 L 20.46875 -1.0625 C 20.46875 -0.46875 20.414062 -0.109375 20.3125 0.015625 C 20.21875 0.140625 20.050781 0.203125 19.8125 0.203125 C 19.476562 0.203125 19.1875 0.128906 18.9375 -0.015625 C 18.695312 -0.160156 18.335938 -0.519531 17.859375 -1.09375 C 16.867188 -2.300781 15.148438 -4.476562 12.703125 -7.625 C 10.253906 -10.78125 7.597656 -14.257812 4.734375 -18.0625 Z M 4.734375 -18.0625 "/></g></g><g style="fill:#cbd5e1;fill-opacity:1;"><g transform="translate(228.765756, 284.203633)"><path style="stroke:none" d="M 3.375 0 C 2.46875 0 1.828125 -0.0664062 1.453125 -0.203125 C 1.078125 -0.347656 0.890625 -0.585938 0.890625 -0.921875 C 0.890625 -1.210938 1.171875 -1.445312 1.734375 -1.625 C 2.304688 -1.8125 2.628906 -1.960938 2.703125 -2.078125 C 2.859375 -2.273438 2.96875 -2.988281 3.03125 -4.21875 C 3.101562 -5.457031 3.140625 -7.722656 3.140625 -11.015625 C 3.140625 -14.265625 3.101562 -16.503906 3.03125 -17.734375 C 2.96875 -18.960938 2.859375 -19.675781 2.703125 -19.875 C 2.628906 -19.976562 2.304688 -20.125 1.734375 -20.3125 C 1.171875 -20.5 0.890625 -20.726562 0.890625 -21 C 0.890625 -21.34375 1.082031 -21.585938 1.46875 -21.734375 C 1.851562 -21.890625 2.488281 -21.96875 3.375 -21.96875 L 13.59375 -21.96875 C 14.082031 -21.96875 14.578125 -22.015625 15.078125 -22.109375 C 15.585938 -22.210938 15.851562 -22.265625 15.875 -22.265625 C 16.28125 -22.265625 16.597656 -21.96875 16.828125 -21.375 C 17.054688 -20.78125 17.171875 -19.960938 17.171875 -18.921875 C 17.171875 -18.535156 17.101562 -18.234375 16.96875 -18.015625 C 16.84375 -17.796875 16.648438 -17.6875 16.390625 -17.6875 C 16.140625 -17.6875 15.859375 -17.96875 15.546875 -18.53125 C 15.441406 -18.707031 15.363281 -18.835938 15.3125 -18.921875 C 15.007812 -19.410156 14.664062 -19.742188 14.28125 -19.921875 C 13.894531 -20.097656 13.304688 -20.1875 12.515625 -20.1875 L 8.625 -20.1875 C 7.6875 -20.1875 7.035156 -20.144531 6.671875 -20.0625 C 6.304688 -19.976562 6.082031 -19.832031 6 -19.625 C 5.875 -19.3125 5.785156 -18.71875 5.734375 -17.84375 C 5.691406 -16.96875 5.671875 -15.5625 5.671875 -13.625 L 5.671875 -13.375 C 5.671875 -12.90625 5.707031 -12.625 5.78125 -12.53125 C 5.863281 -12.4375 6.054688 -12.390625 6.359375 -12.390625 L 10.328125 -12.390625 C 11.003906 -12.390625 11.484375 -12.5 11.765625 -12.71875 C 12.046875 -12.9375 12.222656 -13.34375 12.296875 -13.9375 C 12.304688 -14.007812 12.320312 -14.113281 12.34375 -14.25 C 12.46875 -15.15625 12.742188 -15.609375 13.171875 -15.609375 C 13.554688 -15.609375 13.816406 -15.351562 13.953125 -14.84375 C 14.097656 -14.34375 14.171875 -13.234375 14.171875 -11.515625 C 14.171875 -9.796875 14.097656 -8.6875 13.953125 -8.1875 C 13.816406 -7.695312 13.554688 -7.453125 13.171875 -7.453125 C 12.742188 -7.453125 12.46875 -7.898438 12.34375 -8.796875 C 12.320312 -8.941406 12.304688 -9.050781 12.296875 -9.125 C 12.222656 -9.71875 12.046875 -10.125 11.765625 -10.34375 C 11.484375 -10.5625 11.003906 -10.671875 10.328125 -10.671875 L 6.359375 -10.671875 C 6.078125 -10.671875 5.882812 -10.59375 5.78125 -10.4375 C 5.6875 -10.289062 5.640625 -9.976562 5.640625 -9.5 C 5.640625 -9.375 5.644531 -9.097656 5.65625 -8.671875 C 5.664062 -8.242188 5.671875 -7.875 5.671875 -7.5625 C 5.671875 -6.132812 5.695312 -5.03125 5.75 -4.25 C 5.8125 -3.476562 5.90625 -2.945312 6.03125 -2.65625 C 6.15625 -2.320312 6.46875 -2.085938 6.96875 -1.953125 C 7.476562 -1.816406 8.300781 -1.75 9.4375 -1.75 L 12.140625 -1.75 C 13.222656 -1.75 14.035156 -1.882812 14.578125 -2.15625 C 15.128906 -2.4375 15.601562 -2.929688 16 -3.640625 C 16.15625 -3.921875 16.320312 -4.300781 16.5 -4.78125 C 16.738281 -5.46875 17.019531 -5.8125 17.34375 -5.8125 C 17.570312 -5.8125 17.753906 -5.679688 17.890625 -5.421875 C 18.035156 -5.171875 18.109375 -4.832031 18.109375 -4.40625 C 18.109375 -3.21875 17.90625 -2.125 17.5 -1.125 C 17.101562 -0.125 16.695312 0.375 16.28125 0.375 C 16.226562 0.375 16.097656 0.34375 15.890625 0.28125 C 15.210938 0.09375 14.535156 0 13.859375 0 Z M 3.375 0 "/></g></g><g style="fill:#cbd5e1;fill-opacity:1;"><g transform="translate(247.022583, 284.203633)"><path style="stroke:none" d="M 5.71875 -12 C 6.09375 -11.9375 6.414062 -11.890625 6.6875 -11.859375 C 6.96875 -11.828125 7.210938 -11.8125 7.421875 -11.8125 C 9.378906 -11.8125 10.875 -12.203125 11.90625 -12.984375 C 12.945312 -13.773438 13.46875 -14.910156 13.46875 -16.390625 C 13.46875 -17.703125 13.019531 -18.71875 12.125 -19.4375 C 11.238281 -20.164062 9.976562 -20.53125 8.34375 -20.53125 L 7.875 -20.53125 C 7.0625 -20.53125 6.546875 -20.492188 6.328125 -20.421875 C 6.109375 -20.347656 5.96875 -20.203125 5.90625 -19.984375 C 5.84375 -19.742188 5.796875 -18.957031 5.765625 -17.625 C 5.734375 -16.289062 5.71875 -14.414062 5.71875 -12 Z M 11.78125 -10.9375 C 12.894531 -10.5625 13.773438 -10.015625 14.421875 -9.296875 C 15.078125 -8.578125 15.601562 -7.566406 16 -6.265625 C 16.164062 -5.722656 16.363281 -5.007812 16.59375 -4.125 C 17.019531 -2.351562 17.585938 -1.46875 18.296875 -1.46875 C 18.472656 -1.46875 18.6875 -1.507812 18.9375 -1.59375 C 19.195312 -1.675781 19.375 -1.71875 19.46875 -1.71875 C 19.632812 -1.71875 19.765625 -1.660156 19.859375 -1.546875 C 19.960938 -1.441406 20.015625 -1.304688 20.015625 -1.140625 C 20.015625 -0.773438 19.738281 -0.441406 19.1875 -0.140625 C 18.632812 0.148438 17.984375 0.296875 17.234375 0.296875 C 16.765625 0.296875 16.34375 0.226562 15.96875 0.09375 C 15.601562 -0.0390625 15.296875 -0.242188 15.046875 -0.515625 C 14.578125 -1.023438 14.125 -2.140625 13.6875 -3.859375 C 13.5625 -4.347656 13.457031 -4.726562 13.375 -5 C 13.007812 -6.3125 12.628906 -7.3125 12.234375 -8 C 11.847656 -8.695312 11.363281 -9.242188 10.78125 -9.640625 C 10.382812 -9.921875 9.921875 -10.125 9.390625 -10.25 C 8.867188 -10.375 8.03125 -10.4375 6.875 -10.4375 C 6.300781 -10.4375 5.957031 -10.363281 5.84375 -10.21875 C 5.726562 -10.070312 5.671875 -9.660156 5.671875 -8.984375 L 5.671875 -8.34375 C 5.671875 -6.113281 5.695312 -4.554688 5.75 -3.671875 C 5.8125 -2.796875 5.910156 -2.269531 6.046875 -2.09375 C 6.140625 -1.96875 6.46875 -1.8125 7.03125 -1.625 C 7.59375 -1.445312 7.875 -1.210938 7.875 -0.921875 C 7.875 -0.554688 7.597656 -0.289062 7.046875 -0.125 C 6.503906 0.0390625 5.613281 0.125 4.375 0.125 C 3.132812 0.125 2.242188 0.0390625 1.703125 -0.125 C 1.160156 -0.289062 0.890625 -0.554688 0.890625 -0.921875 C 0.890625 -1.210938 1.171875 -1.445312 1.734375 -1.625 C 2.304688 -1.8125 2.628906 -1.960938 2.703125 -2.078125 C 2.859375 -2.273438 2.96875 -2.988281 3.03125 -4.21875 C 3.101562 -5.457031 3.140625 -7.722656 3.140625 -11.015625 C 3.140625 -14.265625 3.101562 -16.503906 3.03125 -17.734375 C 2.96875 -18.960938 2.859375 -19.675781 2.703125 -19.875 C 2.628906 -19.976562 2.304688 -20.125 1.734375 -20.3125 C 1.171875 -20.5 0.890625 -20.726562 0.890625 -21 C 0.890625 -21.238281 0.984375 -21.429688 1.171875 -21.578125 C 1.367188 -21.734375 1.644531 -21.835938 2 -21.890625 C 2 -21.890625 2.046875 -21.890625 2.140625 -21.890625 C 4.171875 -22.003906 6.5625 -22.0625 9.3125 -22.0625 C 11.476562 -22.0625 13.207031 -21.570312 14.5 -20.59375 C 15.800781 -19.625 16.453125 -18.347656 16.453125 -16.765625 C 16.453125 -15.472656 16.050781 -14.347656 15.25 -13.390625 C 14.457031 -12.441406 13.300781 -11.695312 11.78125 -11.15625 Z M 11.78125 -10.9375 "/></g></g><g style="fill:#cbd5e1;fill-opacity:1;"><g transform="translate(266.220938, 284.203633)"><path style="stroke:none" d="M 2.296875 -1.328125 C 2.296875 -1.835938 2.457031 -2.257812 2.78125 -2.59375 C 3.113281 -2.9375 3.53125 -3.109375 4.03125 -3.109375 C 4.53125 -3.109375 4.953125 -2.9375 5.296875 -2.59375 C 5.640625 -2.25 5.8125 -1.828125 5.8125 -1.328125 C 5.8125 -0.847656 5.640625 -0.4375 5.296875 -0.09375 C 4.953125 0.25 4.53125 0.421875 4.03125 0.421875 C 3.539062 0.421875 3.128906 0.253906 2.796875 -0.078125 C 2.460938 -0.410156 2.296875 -0.828125 2.296875 -1.328125 Z M 2.296875 -1.328125 "/></g></g><g style="fill:#cbd5e1;fill-opacity:1;"><g transform="translate(274.326925, 284.203633)"><path style="stroke:none" d="M 4.734375 -18.0625 L 4.734375 -11.015625 C 4.734375 -8.085938 4.765625 -5.914062 4.828125 -4.5 C 4.898438 -3.09375 5.019531 -2.289062 5.1875 -2.09375 C 5.269531 -1.96875 5.59375 -1.8125 6.15625 -1.625 C 6.726562 -1.445312 7.015625 -1.210938 7.015625 -0.921875 C 7.015625 -0.566406 6.773438 -0.304688 6.296875 -0.140625 C 5.828125 0.015625 5.050781 0.09375 3.96875 0.09375 C 2.882812 0.09375 2.097656 0.015625 1.609375 -0.140625 C 1.117188 -0.304688 0.875 -0.566406 0.875 -0.921875 C 0.875 -1.210938 1.160156 -1.445312 1.734375 -1.625 C 2.304688 -1.8125 2.628906 -1.960938 2.703125 -2.078125 C 2.859375 -2.273438 2.96875 -2.988281 3.03125 -4.21875 C 3.101562 -5.457031 3.140625 -7.722656 3.140625 -11.015625 C 3.140625 -14.265625 3.101562 -16.503906 3.03125 -17.734375 C 2.96875 -18.960938 2.859375 -19.675781 2.703125 -19.875 C 2.628906 -19.976562 2.304688 -20.125 1.734375 -20.3125 C 1.160156 -20.5 0.875 -20.726562 0.875 -21 C 0.875 -21.34375 1.082031 -21.597656 1.5 -21.765625 C 1.925781 -21.941406 2.539062 -22.03125 3.34375 -22.03125 C 3.96875 -22.03125 4.445312 -21.957031 4.78125 -21.8125 C 5.113281 -21.664062 5.4375 -21.375 5.75 -20.9375 C 5.925781 -20.71875 6.273438 -20.253906 6.796875 -19.546875 C 10.703125 -14.242188 14.726562 -9.082031 18.875 -4.0625 L 18.875 -10.96875 C 18.875 -14.476562 18.835938 -16.789062 18.765625 -17.90625 C 18.703125 -19.019531 18.59375 -19.675781 18.4375 -19.875 C 18.363281 -19.976562 18.035156 -20.125 17.453125 -20.3125 C 16.878906 -20.5 16.59375 -20.726562 16.59375 -21 C 16.59375 -21.363281 16.835938 -21.625 17.328125 -21.78125 C 17.816406 -21.945312 18.597656 -22.03125 19.671875 -22.03125 C 20.765625 -22.03125 21.550781 -21.945312 22.03125 -21.78125 C 22.507812 -21.625 22.75 -21.363281 22.75 -21 C 22.75 -20.875 22.6875 -20.753906 22.5625 -20.640625 C 22.445312 -20.535156 22.257812 -20.4375 22 -20.34375 C 21.9375 -20.320312 21.835938 -20.289062 21.703125 -20.25 C 21.160156 -20.082031 20.859375 -19.875 20.796875 -19.625 C 20.691406 -19.238281 20.609375 -17.820312 20.546875 -15.375 C 20.492188 -12.9375 20.46875 -9.566406 20.46875 -5.265625 L 20.46875 -1.0625 C 20.46875 -0.46875 20.414062 -0.109375 20.3125 0.015625 C 20.21875 0.140625 20.050781 0.203125 19.8125 0.203125 C 19.476562 0.203125 19.1875 0.128906 18.9375 -0.015625 C 18.695312 -0.160156 18.335938 -0.519531 17.859375 -1.09375 C 16.867188 -2.300781 15.148438 -4.476562 12.703125 -7.625 C 10.253906 -10.78125 7.597656 -14.257812 4.734375 -18.0625 Z M 4.734375 -18.0625 "/></g></g><g style="fill:#cbd5e1;fill-opacity:1;"><g transform="translate(297.409062, 284.203633)"><path style="stroke:none" d="M 12.328125 0.609375 C 11.078125 0.609375 9.882812 0.421875 8.75 0.046875 C 7.613281 -0.316406 6.585938 -0.851562 5.671875 -1.5625 C 4.265625 -2.644531 3.164062 -4.035156 2.375 -5.734375 C 1.59375 -7.441406 1.203125 -9.285156 1.203125 -11.265625 C 1.203125 -12.554688 1.378906 -13.78125 1.734375 -14.9375 C 2.097656 -16.09375 2.625 -17.148438 3.3125 -18.109375 C 4.269531 -19.460938 5.515625 -20.515625 7.046875 -21.265625 C 8.578125 -22.023438 10.253906 -22.40625 12.078125 -22.40625 C 13.335938 -22.40625 14.523438 -22.207031 15.640625 -21.8125 C 16.765625 -21.414062 17.789062 -20.835938 18.71875 -20.078125 C 20.019531 -19.003906 21.03125 -17.628906 21.75 -15.953125 C 22.476562 -14.273438 22.84375 -12.460938 22.84375 -10.515625 C 22.84375 -9.203125 22.675781 -7.96875 22.34375 -6.8125 C 22.007812 -5.65625 21.515625 -4.609375 20.859375 -3.671875 C 19.898438 -2.304688 18.6875 -1.25 17.21875 -0.5 C 15.75 0.238281 14.117188 0.609375 12.328125 0.609375 Z M 19.890625 -9.671875 C 19.890625 -10.972656 19.734375 -12.222656 19.421875 -13.421875 C 19.109375 -14.628906 18.664062 -15.6875 18.09375 -16.59375 C 17.25 -17.9375 16.242188 -18.960938 15.078125 -19.671875 C 13.910156 -20.378906 12.648438 -20.734375 11.296875 -20.734375 C 9.140625 -20.734375 7.410156 -19.953125 6.109375 -18.390625 C 4.816406 -16.835938 4.171875 -14.753906 4.171875 -12.140625 C 4.171875 -10.828125 4.328125 -9.550781 4.640625 -8.3125 C 4.960938 -7.082031 5.425781 -5.976562 6.03125 -5 C 6.8125 -3.707031 7.757812 -2.726562 8.875 -2.0625 C 9.988281 -1.394531 11.25 -1.0625 12.65625 -1.0625 C 14.875 -1.0625 16.632812 -1.832031 17.9375 -3.375 C 19.238281 -4.925781 19.890625 -7.023438 19.890625 -9.671875 Z M 19.890625 -9.671875 "/></g></g></g></svg>