<svg xmlns="http://www.w3.org/2000/svg" xmlns:xlink="http://www.w3.org/1999/xlink" width="500" zoomAndPan="magnify" viewBox="0 0 375 374.999991" height="500" preserveAspectRatio="xMidYMid meet" version="1.2"><defs><clipPath id="422e9029ef"><path d="M 71.253906 15 L 319 15 L 319 285 L 71.253906 285 Z M 71.253906 15 "/></clipPath></defs><g id="8094c675f7"><g clip-rule="nonzero" clip-path="url(#422e9029ef)"><path style=" stroke:none;fill-rule:nonzero;fill:#202942;fill-opacity:1;" d="M 309.664062 170.234375 L 308.441406 173.242188 C 303.632812 185.027344 298.679688 197.242188 294.082031 209.347656 C 286.96875 228.15625 284.757812 243.835938 287.132812 258.707031 C 287.945312 263.179688 289.039062 267.582031 290.410156 271.914062 C 290.832031 273.355469 291.257812 274.792969 291.660156 276.234375 C 291.800781 276.539062 291.914062 276.851562 291.992188 277.175781 C 292.070312 277.5 292.113281 277.832031 292.121094 278.164062 C 292.128906 278.5 292.101562 278.828125 292.042969 279.160156 C 291.980469 279.488281 291.886719 279.804688 291.761719 280.113281 C 291.632812 280.421875 291.476562 280.714844 291.285156 280.992188 C 291.097656 281.265625 290.882812 281.519531 290.640625 281.75 C 290.398438 281.980469 290.136719 282.183594 289.851562 282.359375 C 289.566406 282.535156 289.269531 282.679688 288.953125 282.792969 C 288.480469 282.976562 287.992188 283.097656 287.488281 283.148438 C 286.671875 283.617188 285.796875 283.84375 284.855469 283.832031 L 177.316406 283.832031 C 176.5 284.042969 175.667969 284.160156 174.820312 284.179688 C 173.976562 284.199219 173.140625 284.121094 172.3125 283.949219 C 171.484375 283.777344 170.6875 283.515625 169.921875 283.160156 C 169.152344 282.808594 168.433594 282.371094 167.769531 281.851562 C 165.402344 278.925781 163.738281 275.640625 162.78125 272 C 162.503906 271.292969 162.289062 270.691406 162.152344 270.300781 C 156.429688 272.425781 150.535156 273.8125 144.464844 274.460938 C 138.394531 275.109375 132.339844 274.996094 126.296875 274.128906 C 119.664062 273.636719 113.414062 271.820312 107.550781 268.679688 C 106.269531 267.789062 105.085938 266.777344 104.011719 265.648438 C 102.933594 264.515625 101.984375 263.285156 101.15625 261.960938 C 100.332031 260.632812 99.648438 259.238281 99.109375 257.773438 C 98.566406 256.308594 98.179688 254.800781 97.949219 253.257812 C 96.714844 246.664062 97.664062 240.023438 97.09375 233.398438 C 96.730469 229.890625 95.898438 226.5 94.597656 223.222656 C 93.296875 219.945312 91.578125 216.90625 89.4375 214.101562 C 89.070312 213.605469 88.804688 213.058594 88.632812 212.464844 L 88.011719 211.664062 C 87.527344 210.835938 87.285156 209.941406 87.289062 208.984375 L 87.289062 204.894531 C 87.285156 204.628906 87.308594 204.363281 87.359375 204.105469 C 86.394531 202.464844 85.933594 200.699219 85.972656 198.796875 C 86.054688 197.695312 85.972656 196.601562 85.734375 195.519531 C 85.496094 194.4375 85.105469 193.410156 84.566406 192.445312 C 84.027344 191.476562 83.363281 190.605469 82.566406 189.832031 C 81.773438 189.058594 80.886719 188.417969 79.902344 187.90625 C 79.03125 187.449219 78.214844 186.917969 77.449219 186.300781 C 76.683594 185.683594 75.984375 185 75.355469 184.246094 C 74.726562 183.492188 74.179688 182.683594 73.710938 181.820312 C 73.242188 180.957031 72.859375 180.054688 72.570312 179.117188 C 72.28125 178.175781 72.085938 177.21875 71.984375 176.242188 C 71.886719 175.265625 71.882812 174.289062 71.976562 173.308594 C 72.070312 172.332031 72.257812 171.375 72.542969 170.433594 C 72.828125 169.492188 73.199219 168.589844 73.664062 167.722656 C 75.605469 163.507812 78.058594 159.617188 81.03125 156.050781 C 83.988281 152.550781 86.425781 148.722656 88.347656 144.5625 C 90.265625 140.40625 91.601562 136.066406 92.351562 131.546875 C 93.234375 125.886719 93.601562 120.042969 93.960938 114.390625 C 94.207031 110.5 94.460938 106.496094 94.878906 102.566406 C 98.628906 67.332031 116.480469 42.546875 147.933594 28.90625 C 157.445312 24.96875 167.226562 21.882812 177.277344 19.648438 C 187.328125 17.417969 197.496094 16.070312 207.78125 15.609375 C 213.984375 15.550781 220.144531 16.011719 226.269531 16.992188 C 232.394531 17.976562 238.394531 19.464844 244.265625 21.460938 C 250.136719 23.457031 255.800781 25.933594 261.253906 28.890625 C 266.707031 31.84375 271.871094 35.238281 276.75 39.066406 C 281.511719 42.816406 285.914062 46.945312 289.964844 51.449219 C 294.015625 55.957031 297.652344 60.773438 300.878906 65.902344 C 304.101562 71.03125 306.863281 76.398438 309.167969 82.003906 C 311.472656 87.605469 313.28125 93.367188 314.597656 99.28125 C 316.066406 105.136719 317.066406 111.074219 317.597656 117.089844 C 318.128906 123.105469 318.1875 129.125 317.769531 135.148438 C 317.347656 141.171875 316.460938 147.128906 315.101562 153.011719 C 313.742188 158.894531 311.929688 164.636719 309.664062 170.234375 Z M 305.753906 104.625 C 297.296875 62.726562 265.273438 32.097656 224.15625 26.59375 C 217.15625 25.722656 210.128906 25.410156 203.078125 25.65625 C 196.027344 25.902344 189.042969 26.703125 182.117188 28.058594 C 175.195312 29.410156 168.421875 31.300781 161.796875 33.730469 C 155.175781 36.160156 148.785156 39.097656 142.628906 42.539062 C 140.414062 43.683594 138.269531 44.949219 136.195312 46.328125 C 134.121094 47.710938 132.128906 49.199219 130.21875 50.800781 C 128.308594 52.402344 126.492188 54.105469 124.769531 55.90625 C 123.050781 57.707031 121.429688 59.597656 119.917969 61.578125 C 118.40625 63.558594 117.007812 65.617188 115.71875 67.75 C 114.433594 69.886719 113.269531 72.085938 112.226562 74.347656 C 111.183594 76.613281 110.269531 78.925781 109.480469 81.289062 C 108.695312 83.65625 108.039062 86.054688 107.515625 88.492188 C 105.359375 97.953125 104.179688 107.535156 103.980469 117.238281 C 103.960938 121.453125 103.589844 125.632812 102.867188 129.785156 C 102.144531 133.9375 101.082031 138.003906 99.675781 141.976562 C 98.273438 145.949219 96.546875 149.777344 94.5 153.460938 C 92.453125 157.144531 90.113281 160.632812 87.480469 163.925781 C 85.84375 165.871094 84.402344 167.953125 83.164062 170.175781 C 80.722656 174.792969 81.429688 177.40625 85.867188 180.15625 C 87.363281 180.96875 88.722656 181.972656 89.945312 183.15625 C 91.167969 184.34375 92.207031 185.671875 93.066406 187.140625 C 93.929688 188.613281 94.574219 190.171875 95.011719 191.816406 C 95.445312 193.464844 95.652344 195.140625 95.628906 196.84375 C 95.519531 197.667969 95.71875 198.410156 96.226562 199.066406 C 96.917969 199.574219 97.6875 199.761719 98.535156 199.628906 C 103.535156 199.53125 108.722656 199.535156 113.957031 199.628906 C 114.726562 199.597656 115.46875 199.710938 116.191406 199.980469 C 116.910156 200.246094 117.550781 200.644531 118.113281 201.171875 C 118.550781 201.664062 118.871094 202.226562 119.070312 202.855469 C 119.273438 203.480469 119.34375 204.125 119.28125 204.78125 C 119.160156 207.738281 117.246094 209.378906 113.894531 209.378906 C 112.28125 209.378906 110.667969 209.386719 109.050781 209.402344 C 105.753906 209.421875 102.371094 209.421875 99.003906 209.371094 C 100.574219 211.707031 101.949219 214.15625 103.125 216.714844 C 104.300781 219.273438 105.265625 221.910156 106.015625 224.625 C 106.769531 227.339844 107.296875 230.097656 107.605469 232.898438 C 107.910156 235.695312 107.992188 238.503906 107.84375 241.316406 C 107.800781 246.558594 107.492188 252.632812 110.628906 257.152344 C 113.8125 261.753906 120.886719 262.566406 125.992188 263.433594 C 147.644531 267.101562 172.015625 260.140625 181.675781 238.882812 C 184.503906 232.675781 193.644531 238.0625 190.835938 244.238281 C 188.75 248.789062 186.03125 252.917969 182.667969 256.625 C 179.308594 260.332031 175.464844 263.445312 171.140625 265.964844 C 172.34375 268.515625 173.394531 271.003906 174.28125 273.234375 L 280.195312 273.234375 C 278.804688 268.539062 277.789062 263.761719 277.152344 258.90625 C 276.519531 254.050781 276.269531 249.171875 276.40625 244.277344 C 276.542969 239.382812 277.066406 234.527344 277.972656 229.714844 C 278.882812 224.902344 280.160156 220.191406 281.816406 215.582031 C 287.039062 200.28125 293.0625 184.972656 298.890625 170.171875 L 301.132812 164.457031 C 302.984375 159.722656 304.472656 154.875 305.605469 149.921875 C 306.734375 144.964844 307.496094 139.953125 307.890625 134.882812 C 308.28125 129.816406 308.296875 124.746094 307.9375 119.675781 C 307.582031 114.605469 306.851562 109.585938 305.753906 104.625 Z M 275.957031 110.992188 C 275.671875 110.742188 275.441406 110.453125 275.257812 110.125 C 275.074219 109.796875 274.953125 109.449219 274.890625 109.078125 C 274.828125 108.707031 274.832031 108.335938 274.898438 107.964844 C 274.964844 107.597656 275.09375 107.25 275.28125 106.921875 C 275.550781 106.324219 275.789062 105.714844 276 105.09375 C 276.207031 104.472656 276.382812 103.839844 276.527344 103.199219 C 276.671875 102.558594 276.785156 101.914062 276.863281 101.261719 C 276.9375 100.609375 276.984375 99.957031 276.996094 99.300781 C 277.007812 98.644531 276.984375 97.988281 276.929688 97.335938 C 276.871094 96.679688 276.785156 96.03125 276.660156 95.386719 C 276.539062 94.742188 276.382812 94.105469 276.199219 93.476562 C 276.011719 92.847656 275.792969 92.230469 275.539062 91.621094 C 275.289062 91.015625 275.011719 90.425781 274.699219 89.847656 C 274.386719 89.269531 274.046875 88.707031 273.679688 88.164062 C 273.3125 87.621094 272.917969 87.097656 272.496094 86.59375 C 272.074219 86.09375 271.628906 85.613281 271.15625 85.15625 C 270.683594 84.699219 270.191406 84.265625 269.675781 83.859375 C 269.164062 83.453125 268.628906 83.074219 268.074219 82.722656 C 267.519531 82.367188 266.949219 82.046875 266.363281 81.75 C 265.777344 81.457031 265.175781 81.195312 264.5625 80.960938 C 264.164062 80.859375 263.796875 80.691406 263.460938 80.460938 C 263.121094 80.230469 262.832031 79.949219 262.59375 79.617188 C 262.355469 79.28125 262.179688 78.917969 262.066406 78.523438 C 261.957031 78.128906 261.914062 77.726562 261.945312 77.320312 C 261.917969 76.664062 261.859375 76.011719 261.769531 75.363281 C 261.679688 74.714844 261.5625 74.074219 261.414062 73.433594 C 261.261719 72.796875 261.085938 72.167969 260.878906 71.546875 C 260.667969 70.925781 260.433594 70.316406 260.167969 69.714844 C 259.90625 69.117188 259.613281 68.53125 259.292969 67.960938 C 258.976562 67.386719 258.628906 66.832031 258.257812 66.292969 C 257.886719 65.753906 257.492188 65.230469 257.074219 64.730469 C 256.65625 64.226562 256.214844 63.742188 255.75 63.28125 C 255.285156 62.820312 254.800781 62.378906 254.292969 61.964844 C 253.789062 61.546875 253.265625 61.15625 252.722656 60.785156 C 252.183594 60.417969 251.625 60.078125 251.050781 59.761719 C 250.476562 59.445312 249.890625 59.15625 249.289062 58.894531 C 248.691406 58.632812 248.078125 58.402344 247.457031 58.195312 C 246.835938 57.992188 246.203125 57.816406 245.566406 57.671875 C 244.925781 57.527344 244.285156 57.410156 243.632812 57.324219 C 242.984375 57.238281 242.332031 57.183594 241.679688 57.160156 C 240.417969 57.136719 239.332031 56.6875 238.425781 55.8125 C 233.335938 47.644531 227.8125 43.824219 221.09375 44.105469 C 219.261719 43.851562 217.445312 43.941406 215.652344 44.386719 C 215.046875 44.601562 214.375 44.886719 214.375 44.886719 C 213.8125 45.128906 213.246094 45.453125 212.359375 45.945312 C 211.726562 46.304688 211.113281 46.695312 210.523438 47.117188 C 210.199219 47.328125 209.882812 47.542969 209.566406 47.785156 L 209.496094 47.820312 L 209.316406 48 C 208.210938 48.921875 207.1875 49.921875 206.238281 51.003906 C 206.203125 51.039062 205.851562 51.464844 205.777344 51.539062 C 205.71875 51.640625 205.644531 51.734375 205.566406 51.820312 C 203.964844 54.367188 202.914062 57.125 202.421875 60.09375 L 202.421875 62.214844 C 202.171875 62.425781 201.902344 62.601562 201.609375 62.742188 C 197.03125 64.699219 192.359375 66.40625 187.601562 67.875 C 186.992188 68.054688 186.371094 68.109375 185.734375 68.035156 C 185.101562 67.960938 184.507812 67.765625 183.957031 67.449219 C 181.199219 65.429688 178.511719 63.136719 175.964844 60.90625 L 174.300781 59.492188 C 174.042969 59.203125 173.757812 58.945312 173.445312 58.722656 C 173.132812 58.496094 172.800781 58.308594 172.445312 58.15625 C 172.089844 58.003906 171.722656 57.894531 171.34375 57.824219 C 170.960938 57.753906 170.582031 57.726562 170.195312 57.742188 C 169.808594 57.757812 169.429688 57.816406 169.058594 57.914062 C 168.683594 58.015625 168.328125 58.152344 167.984375 58.332031 C 167.644531 58.511719 167.324219 58.726562 167.03125 58.976562 C 166.734375 59.222656 166.472656 59.503906 166.238281 59.8125 C 162.132812 63.984375 157.890625 68.226562 153.820312 72.296875 L 153.363281 72.71875 C 153.074219 72.945312 152.8125 73.203125 152.578125 73.488281 C 152.34375 73.773438 152.144531 74.078125 151.976562 74.40625 C 151.8125 74.734375 151.679688 75.078125 151.589844 75.433594 C 151.496094 75.789062 151.441406 76.148438 151.425781 76.519531 C 151.410156 76.886719 151.4375 77.25 151.5 77.613281 C 151.5625 77.976562 151.664062 78.328125 151.804688 78.667969 C 151.945312 79.007812 152.121094 79.328125 152.328125 79.632812 C 152.539062 79.933594 152.777344 80.210938 153.046875 80.464844 L 155.378906 83.222656 C 157.46875 85.628906 159.621094 88.136719 161.496094 90.757812 C 161.839844 91.378906 162.046875 92.042969 162.121094 92.75 C 162.195312 93.453125 162.128906 94.144531 161.921875 94.824219 C 161.332031 96.652344 160.648438 98.445312 159.875 100.203125 C 159.238281 101.753906 158.5625 103.386719 158.03125 105.011719 C 157.324219 107.097656 156.472656 107.773438 154.492188 107.84375 C 151.558594 107.914062 148.625 108.195312 145.761719 108.480469 C 144.347656 108.589844 142.964844 108.726562 141.550781 108.832031 C 141.167969 108.816406 140.78125 108.839844 140.402344 108.902344 C 140.023438 108.96875 139.652344 109.074219 139.292969 109.21875 C 138.9375 109.367188 138.597656 109.550781 138.28125 109.769531 C 137.964844 109.988281 137.675781 110.242188 137.410156 110.523438 C 137.148438 110.808594 136.917969 111.113281 136.722656 111.449219 C 136.527344 111.78125 136.371094 112.132812 136.253906 112.5 C 136.132812 112.867188 136.054688 113.242188 136.019531 113.625 C 135.980469 114.011719 135.988281 114.394531 136.035156 114.777344 C 136.070312 120.15625 136.070312 125.632812 136.035156 130.902344 L 136.035156 132.992188 C 135.988281 133.378906 135.984375 133.761719 136.023438 134.144531 C 136.0625 134.53125 136.140625 134.90625 136.261719 135.273438 C 136.386719 135.640625 136.546875 135.988281 136.746094 136.320312 C 136.945312 136.652344 137.179688 136.957031 137.445312 137.234375 C 137.714844 137.515625 138.007812 137.761719 138.332031 137.972656 C 138.652344 138.1875 138.992188 138.363281 139.355469 138.5 C 139.714844 138.636719 140.089844 138.734375 140.472656 138.789062 C 140.851562 138.84375 141.238281 138.855469 141.621094 138.828125 C 144.519531 138.96875 147.457031 139.253906 150.285156 139.5 L 153.71875 139.816406 C 154.207031 139.78125 154.6875 139.832031 155.160156 139.972656 C 155.628906 140.109375 156.058594 140.328125 156.449219 140.625 C 156.839844 140.921875 157.167969 141.277344 157.425781 141.695312 C 157.6875 142.109375 157.867188 142.558594 157.964844 143.039062 C 158.792969 146.078125 160.007812 148.957031 161.609375 151.667969 C 161.800781 151.90625 161.960938 152.164062 162.101562 152.433594 C 162.238281 152.707031 162.34375 152.988281 162.425781 153.28125 C 162.503906 153.574219 162.554688 153.875 162.570312 154.179688 C 162.589844 154.480469 162.578125 154.785156 162.535156 155.085938 C 162.492188 155.386719 162.417969 155.679688 162.316406 155.96875 C 162.210938 156.253906 162.082031 156.527344 161.921875 156.785156 C 161.761719 157.046875 161.578125 157.289062 161.371094 157.507812 C 161.164062 157.730469 160.933594 157.929688 160.6875 158.105469 C 158.875 159.914062 157.179688 161.824219 155.59375 163.835938 C 154.710938 164.898438 153.863281 165.957031 152.941406 166.984375 C 152.671875 167.234375 152.433594 167.511719 152.222656 167.816406 C 152.011719 168.117188 151.835938 168.441406 151.695312 168.78125 C 151.554688 169.121094 151.449219 169.472656 151.382812 169.835938 C 151.316406 170.195312 151.289062 170.5625 151.300781 170.929688 C 151.3125 171.296875 151.363281 171.660156 151.453125 172.019531 C 151.542969 172.375 151.667969 172.722656 151.832031 173.050781 C 151.992188 173.382812 152.191406 173.691406 152.417969 173.980469 C 152.648438 174.269531 152.902344 174.53125 153.1875 174.765625 C 157.542969 179.253906 162.03125 183.714844 166.664062 188.242188 C 166.894531 188.507812 167.148438 188.746094 167.425781 188.957031 C 167.707031 189.167969 168.003906 189.347656 168.320312 189.496094 C 168.640625 189.644531 168.96875 189.761719 169.308594 189.839844 C 169.652344 189.917969 169.996094 189.960938 170.347656 189.96875 C 170.699219 189.976562 171.042969 189.945312 171.390625 189.878906 C 171.734375 189.8125 172.066406 189.710938 172.390625 189.574219 C 172.710938 189.4375 173.015625 189.265625 173.304688 189.066406 C 173.589844 188.863281 173.851562 188.636719 174.089844 188.378906 L 185.335938 178.972656 C 186.609375 179.5 187.8125 180.035156 189.054688 180.527344 C 192.695312 182.050781 198.78125 183.5 202.171875 185.09375 C 202.261719 185.140625 202.347656 185.199219 202.421875 185.269531 L 202.421875 199.53125 C 202.484375 199.703125 202.566406 199.867188 202.667969 200.023438 C 204.96875 204.09375 210.695312 205.011719 214.160156 205.257812 C 214.992188 205.226562 215.78125 205.023438 216.523438 204.648438 C 217.265625 204.269531 217.890625 203.753906 218.40625 203.097656 C 221.320312 203.707031 224.25 203.769531 227.1875 203.285156 C 230.125 202.804688 232.878906 201.8125 235.449219 200.308594 C 238.324219 198.667969 241.332031 197.320312 244.46875 196.273438 C 258.546875 191.714844 265.480469 183.863281 266.226562 171.621094 C 266.257812 171.058594 266.679688 170.03125 268.449219 168.476562 C 273.972656 163.554688 279.945312 156.769531 277.328125 147.609375 C 276.996094 146.324219 276.792969 145.015625 276.714844 143.691406 C 276.636719 142.363281 276.6875 141.042969 276.867188 139.726562 C 277.046875 138.414062 277.351562 137.125 277.78125 135.871094 C 278.210938 134.613281 278.753906 133.410156 279.417969 132.257812 C 279.816406 131.390625 280.148438 130.5 280.414062 129.582031 C 280.679688 128.664062 280.878906 127.734375 281.003906 126.789062 C 281.132812 125.84375 281.191406 124.894531 281.175781 123.9375 C 281.164062 122.984375 281.082031 122.035156 280.925781 121.09375 C 280.773438 120.152344 280.550781 119.226562 280.257812 118.320312 C 279.964844 117.410156 279.609375 116.527344 279.1875 115.671875 C 278.761719 114.816406 278.28125 113.996094 277.734375 113.210938 C 277.191406 112.429688 276.59375 111.6875 275.9375 110.992188 Z M 202.40625 149.613281 C 194.339844 144.097656 185.746094 134.511719 185.988281 123.511719 C 186.203125 112.902344 194.089844 103.457031 202.40625 97.941406 Z M 190.058594 169.738281 C 184.824219 166.949219 183.867188 166.839844 179.445312 170.871094 C 177.359375 172.785156 175.203125 174.589844 173.296875 176.214844 C 172.621094 176.78125 171.949219 177.347656 171.351562 177.875 L 162.964844 170.554688 L 165.617188 167.480469 C 167.847656 164.863281 169.933594 162.386719 172.160156 159.980469 C 172.652344 159.464844 173.046875 158.882812 173.339844 158.234375 C 173.632812 157.582031 173.8125 156.902344 173.878906 156.195312 C 173.941406 155.484375 173.886719 154.78125 173.714844 154.089844 C 173.542969 153.398438 173.257812 152.757812 172.867188 152.160156 C 170.574219 146.996094 168.375 141.515625 166.222656 135.394531 C 166.074219 134.726562 165.820312 134.101562 165.460938 133.515625 C 165.101562 132.933594 164.660156 132.421875 164.128906 131.988281 C 163.601562 131.550781 163.015625 131.214844 162.375 130.972656 C 161.734375 130.734375 161.070312 130.605469 160.386719 130.585938 C 155.859375 130.339844 152.078125 130.054688 148.289062 129.5625 C 147.371094 129.421875 145.992188 128.425781 145.957031 128.007812 C 145.773438 125.582031 145.714844 123.152344 145.78125 120.71875 C 145.816406 119.941406 145.816406 119.164062 145.816406 118.386719 L 150.167969 117.960938 C 153.738281 117.609375 157.132812 117.253906 160.492188 117.042969 C 161.171875 117.015625 161.832031 116.878906 162.46875 116.632812 C 163.105469 116.386719 163.683594 116.046875 164.203125 115.605469 C 164.726562 115.167969 165.164062 114.65625 165.515625 114.074219 C 165.867188 113.488281 166.113281 112.863281 166.257812 112.195312 C 168.414062 106.042969 170.539062 100.667969 172.800781 95.785156 C 173.175781 95.179688 173.441406 94.53125 173.605469 93.835938 C 173.765625 93.144531 173.816406 92.441406 173.746094 91.734375 C 173.679688 91.027344 173.503906 90.347656 173.214844 89.695312 C 172.925781 89.046875 172.539062 88.457031 172.058594 87.933594 C 169.792969 85.386719 167.671875 82.769531 165.585938 80.21875 C 164.773438 79.269531 163.992188 78.277344 163.214844 77.359375 L 171.03125 69.542969 C 171.953125 70.320312 172.871094 71.0625 173.792969 71.835938 C 176.230469 73.820312 178.707031 75.90625 181.117188 78.027344 C 181.65625 78.546875 182.269531 78.957031 182.953125 79.261719 C 183.640625 79.5625 184.355469 79.738281 185.105469 79.789062 C 185.851562 79.835938 186.585938 79.753906 187.304688 79.542969 C 188.023438 79.332031 188.683594 79.003906 189.285156 78.558594 C 192.714844 76.757812 198.550781 75.125 202.410156 73.644531 L 202.410156 86.730469 C 188.261719 93.417969 175.699219 108.628906 176.234375 124.96875 C 176.800781 142.15625 189.996094 155.457031 202.410156 161.148438 L 202.410156 174.417969 C 198.195312 173.109375 194.078125 171.546875 190.058594 169.738281 Z M 267.339844 133.984375 C 263.765625 137.875 253.121094 139.078125 249.546875 136 C 248.988281 135.523438 248.5625 134.945312 248.277344 134.265625 C 244.347656 123.265625 234.839844 120.433594 226.984375 119.234375 C 226.160156 119.03125 225.332031 118.996094 224.5 119.132812 C 223.664062 119.265625 222.886719 119.558594 222.171875 120.007812 C 221.671875 120.425781 221.273438 120.929688 220.984375 121.515625 C 220.695312 122.101562 220.539062 122.71875 220.511719 123.375 C 220.054688 127.582031 223.304688 128.574219 225.816406 128.960938 C 231.726562 129.847656 235.402344 131.503906 237.382812 134.265625 C 238.4375 136.152344 239.085938 138.167969 239.328125 140.316406 C 239.566406 142.464844 239.378906 144.574219 238.761719 146.644531 C 238.761719 146.683594 238.730469 146.71875 238.730469 146.75 C 238.679688 146.851562 238.65625 146.957031 238.660156 147.070312 C 238.574219 147.390625 238.523438 147.71875 238.503906 148.046875 C 238.484375 148.378906 238.5 148.707031 238.546875 149.035156 C 238.59375 149.363281 238.671875 149.683594 238.78125 149.996094 C 238.890625 150.308594 239.03125 150.609375 239.199219 150.894531 C 239.367188 151.179688 239.566406 151.445312 239.785156 151.691406 C 240.007812 151.9375 240.253906 152.15625 240.519531 152.355469 C 240.785156 152.554688 241.066406 152.722656 241.367188 152.863281 C 241.664062 153.007812 241.976562 153.117188 242.296875 153.195312 C 242.613281 153.308594 242.9375 153.390625 243.273438 153.433594 C 243.605469 153.476562 243.941406 153.484375 244.277344 153.453125 C 244.609375 153.425781 244.9375 153.359375 245.257812 153.261719 C 245.582031 153.160156 245.886719 153.027344 246.179688 152.863281 C 246.472656 152.695312 246.742188 152.5 246.992188 152.273438 C 247.242188 152.050781 247.46875 151.800781 247.664062 151.527344 C 247.859375 151.257812 248.023438 150.964844 248.160156 150.65625 C 248.292969 150.347656 248.390625 150.027344 248.457031 149.699219 C 248.664062 148.992188 248.910156 148.316406 249.128906 147.644531 L 249.339844 147.007812 C 250.183594 147.082031 251.039062 147.1875 251.851562 147.257812 C 253.90625 147.5 255.96875 147.609375 258.039062 147.578125 C 260.191406 147.449219 262.328125 147.175781 264.441406 146.757812 C 265.21875 146.621094 266.035156 146.511719 266.847656 146.375 C 267.101562 146.898438 267.308594 147.441406 267.46875 148 C 267.628906 148.558594 267.738281 149.128906 267.796875 149.707031 C 267.855469 150.289062 267.859375 150.867188 267.816406 151.449219 C 267.773438 152.03125 267.679688 152.601562 267.535156 153.164062 C 267.390625 153.730469 267.199219 154.277344 266.957031 154.808594 C 266.714844 155.335938 266.429688 155.839844 266.097656 156.320312 C 265.769531 156.800781 265.398438 157.246094 264.992188 157.664062 C 264.582031 158.078125 264.140625 158.453125 263.664062 158.789062 C 263.5625 158.542969 263.453125 158.289062 263.351562 158.007812 C 262.996094 157.089844 262.605469 156.171875 262.214844 155.289062 C 261.941406 154.503906 261.523438 153.8125 260.957031 153.207031 C 260.390625 152.605469 259.726562 152.140625 258.964844 151.816406 C 258.324219 151.621094 257.671875 151.558594 257.007812 151.632812 C 256.34375 151.707031 255.722656 151.910156 255.140625 152.242188 C 254.816406 152.382812 254.507812 152.554688 254.222656 152.761719 C 253.933594 152.96875 253.675781 153.207031 253.441406 153.472656 C 253.207031 153.734375 253.003906 154.023438 252.832031 154.335938 C 252.660156 154.644531 252.527344 154.96875 252.429688 155.308594 C 252.332031 155.648438 252.273438 155.996094 252.25 156.351562 C 252.230469 156.703125 252.246094 157.054688 252.304688 157.40625 C 252.363281 157.753906 252.457031 158.09375 252.589844 158.421875 C 252.722656 158.75 252.886719 159.058594 253.089844 159.351562 L 253.160156 159.496094 C 254.023438 161.242188 254.777344 163.035156 255.425781 164.871094 C 258.042969 172.652344 255.355469 180.683594 249.273438 183.265625 C 248.808594 182.667969 248.386719 182.03125 247.960938 181.390625 C 247.160156 179.824219 245.992188 178.609375 244.457031 177.746094 C 243.941406 177.519531 243.398438 177.402344 242.832031 177.394531 C 242.335938 177.390625 241.867188 177.496094 241.417969 177.707031 C 240.613281 178.242188 239.933594 178.90625 239.382812 179.699219 C 238.832031 180.496094 238.449219 181.363281 238.234375 182.304688 C 238.144531 182.546875 238.039062 182.785156 237.917969 183.011719 C 237.839844 183.121094 237.78125 183.238281 237.742188 183.367188 C 237.261719 184.484375 236.671875 185.539062 235.976562 186.539062 C 235.285156 187.539062 234.496094 188.457031 233.621094 189.296875 C 232.742188 190.140625 231.789062 190.886719 230.761719 191.535156 C 229.734375 192.1875 228.652344 192.730469 227.515625 193.164062 C 226.363281 193.492188 225.1875 193.699219 223.988281 193.792969 C 222.792969 193.882812 221.597656 193.855469 220.410156 193.707031 C 219.21875 193.554688 218.054688 193.289062 216.917969 192.90625 C 215.777344 192.523438 214.691406 192.03125 213.652344 191.429688 C 212.679688 190.84375 212.078125 189.996094 211.847656 188.882812 C 211.707031 185.347656 211.707031 181.8125 211.742188 178.097656 C 211.742188 176.960938 211.777344 175.796875 211.777344 174.628906 C 212.378906 174.738281 212.949219 174.839844 213.511719 174.984375 C 215.03125 175.265625 216.449219 175.550781 217.898438 175.691406 C 226.246094 176.542969 232.113281 174.066406 235.933594 168.085938 C 236.164062 167.816406 236.363281 167.527344 236.527344 167.214844 C 236.691406 166.902344 236.820312 166.574219 236.914062 166.234375 C 237.007812 165.894531 237.0625 165.546875 237.078125 165.195312 C 237.097656 164.839844 237.074219 164.488281 237.011719 164.140625 C 236.953125 163.792969 236.855469 163.457031 236.71875 163.128906 C 236.582031 162.800781 236.414062 162.496094 236.210938 162.207031 C 236.007812 161.914062 235.777344 161.652344 235.515625 161.414062 C 235.253906 161.175781 234.96875 160.96875 234.660156 160.792969 C 234.167969 160.398438 233.621094 160.117188 233.011719 159.953125 C 232.402344 159.785156 231.785156 159.746094 231.160156 159.839844 C 230.460938 160.023438 229.828125 160.335938 229.261719 160.785156 C 228.699219 161.234375 228.246094 161.777344 227.910156 162.417969 C 227.429688 163.15625 226.84375 163.800781 226.160156 164.351562 C 225.472656 164.90625 224.71875 165.335938 223.894531 165.648438 C 223.070312 165.960938 222.21875 166.136719 221.339844 166.175781 C 220.457031 166.21875 219.59375 166.121094 218.746094 165.886719 C 217.0625 165.585938 215.425781 165.128906 213.828125 164.515625 L 212.023438 163.882812 L 212.023438 151.960938 C 213.296875 151.714844 214.53125 151.503906 215.738281 151.285156 C 218.8125 150.722656 221.75 150.195312 224.652344 149.449219 C 225.375 149.304688 226.039062 149.019531 226.644531 148.59375 C 227.246094 148.167969 227.738281 147.640625 228.117188 147.007812 C 228.386719 146.4375 228.527344 145.839844 228.539062 145.210938 C 228.550781 144.582031 228.433594 143.976562 228.1875 143.398438 C 228.101562 143.039062 227.972656 142.695312 227.804688 142.363281 C 227.640625 142.035156 227.4375 141.726562 227.203125 141.441406 C 226.964844 141.15625 226.699219 140.902344 226.40625 140.675781 C 226.113281 140.453125 225.796875 140.261719 225.460938 140.109375 C 225.121094 139.957031 224.773438 139.84375 224.410156 139.769531 C 224.046875 139.695312 223.679688 139.664062 223.308594 139.671875 C 222.941406 139.679688 222.574219 139.730469 222.21875 139.824219 C 221.859375 139.914062 221.515625 140.046875 221.1875 140.214844 C 219.242188 140.777344 217.261719 141.117188 215.242188 141.238281 L 214.605469 141.277344 C 213.800781 141.457031 213.070312 141.300781 212.410156 140.8125 C 211.78125 140.007812 211.546875 139.101562 211.703125 138.089844 C 211.84375 129.285156 211.84375 120.691406 211.703125 112.558594 C 211.640625 112.035156 211.691406 111.523438 211.851562 111.023438 C 212.011719 110.523438 212.269531 110.078125 212.621094 109.6875 C 213.230469 109.203125 213.914062 109.039062 214.679688 109.199219 C 218.464844 109.71875 222.15625 110.636719 225.746094 111.957031 C 228.46875 112.941406 231.226562 113.402344 232.996094 110.328125 C 233.34375 109.785156 233.570312 109.191406 233.675781 108.550781 C 233.78125 107.914062 233.753906 107.277344 233.597656 106.652344 C 233.304688 105.863281 232.871094 105.167969 232.292969 104.558594 C 231.714844 103.953125 231.042969 103.480469 230.273438 103.148438 C 227.546875 101.503906 224.625 100.367188 221.503906 99.742188 C 218.378906 99.113281 215.246094 99.035156 212.097656 99.507812 L 212.097656 90.132812 C 212.875 90.199219 213.648438 90.269531 214.390625 90.34375 C 216.257812 90.597656 218.132812 90.71875 220.019531 90.695312 C 221.015625 90.757812 222 90.660156 222.96875 90.410156 C 223.9375 90.160156 224.84375 89.765625 225.6875 89.230469 C 226.535156 88.691406 227.273438 88.039062 227.914062 87.269531 C 228.550781 86.5 229.054688 85.648438 229.421875 84.71875 C 229.703125 83.773438 229.742188 82.820312 229.542969 81.855469 C 229.339844 80.890625 228.925781 80.03125 228.296875 79.273438 C 227.121094 78.46875 225.824219 78.117188 224.40625 78.214844 C 223.769531 78.167969 223.21875 78.355469 222.742188 78.777344 C 219.804688 81.996094 217.007812 81.074219 213.71875 79.980469 C 213.085938 79.800781 212.445312 79.589844 211.808594 79.382812 C 211.808594 77.71875 211.773438 76.015625 211.773438 74.355469 C 211.738281 70.183594 211.703125 66.257812 211.84375 62.226562 C 211.875 61.726562 211.945312 61.230469 212.0625 60.742188 C 212.175781 60.253906 212.332031 59.78125 212.53125 59.316406 C 212.726562 58.855469 212.960938 58.414062 213.234375 57.996094 C 213.507812 57.574219 213.8125 57.179688 214.15625 56.808594 C 214.496094 56.441406 214.867188 56.105469 215.265625 55.800781 C 215.664062 55.496094 216.085938 55.230469 216.53125 54.996094 C 216.976562 54.765625 217.4375 54.574219 217.914062 54.421875 C 218.394531 54.269531 218.882812 54.160156 219.378906 54.09375 C 219.851562 54 220.328125 53.945312 220.808594 53.933594 C 221.292969 53.917969 221.769531 53.945312 222.25 54.011719 C 222.726562 54.078125 223.195312 54.1875 223.652344 54.332031 C 224.113281 54.476562 224.554688 54.660156 224.984375 54.878906 C 225.414062 55.097656 225.820312 55.351562 226.207031 55.640625 C 226.59375 55.929688 226.953125 56.246094 227.285156 56.597656 C 227.617188 56.945312 227.921875 57.316406 228.191406 57.71875 C 228.460938 58.117188 228.695312 58.535156 228.894531 58.972656 C 229.554688 61.085938 229.765625 63.246094 229.53125 65.445312 C 229.386719 67.851562 229.675781 70.4375 232.710938 71.425781 C 233.007812 71.535156 233.308594 71.613281 233.621094 71.664062 C 233.929688 71.714844 234.242188 71.734375 234.554688 71.722656 C 234.867188 71.714844 235.175781 71.675781 235.484375 71.605469 C 235.789062 71.539062 236.085938 71.441406 236.375 71.3125 C 236.660156 71.1875 236.933594 71.035156 237.191406 70.859375 C 237.449219 70.679688 237.6875 70.480469 237.910156 70.253906 C 238.128906 70.03125 238.324219 69.789062 238.496094 69.527344 C 238.671875 69.265625 238.816406 68.988281 238.9375 68.699219 C 239.285156 68.222656 239.722656 67.851562 240.242188 67.578125 C 240.765625 67.304688 241.320312 67.160156 241.910156 67.148438 C 242.589844 67.191406 243.257812 67.300781 243.917969 67.46875 C 244.578125 67.640625 245.21875 67.867188 245.835938 68.15625 C 246.457031 68.441406 247.042969 68.785156 247.597656 69.179688 C 248.152344 69.578125 248.667969 70.019531 249.140625 70.511719 C 249.613281 71 250.035156 71.53125 250.414062 72.101562 C 250.789062 72.671875 251.109375 73.269531 251.371094 73.898438 C 251.636719 74.527344 251.84375 75.171875 251.988281 75.839844 C 252.132812 76.503906 252.214844 77.179688 252.238281 77.859375 C 252.277344 78.613281 252.246094 79.363281 252.136719 80.105469 C 252.03125 80.851562 251.851562 81.582031 251.597656 82.289062 C 251.34375 83 251.023438 83.675781 250.632812 84.324219 C 250.246094 84.96875 249.796875 85.570312 249.285156 86.125 C 248.777344 86.679688 248.21875 87.179688 247.609375 87.621094 C 247 88.066406 246.351562 88.445312 245.667969 88.757812 C 244.984375 89.074219 244.273438 89.316406 243.539062 89.488281 C 242.808594 89.660156 242.0625 89.757812 241.3125 89.78125 C 237.558594 90.273438 235.863281 91.972656 236.078125 94.984375 C 236.085938 95.636719 236.226562 96.261719 236.5 96.859375 C 236.769531 97.457031 237.148438 97.972656 237.632812 98.414062 C 238.3125 98.902344 239.058594 99.246094 239.871094 99.445312 C 240.6875 99.640625 241.507812 99.671875 242.335938 99.546875 C 243.792969 99.480469 245.226562 99.253906 246.632812 98.867188 C 248.039062 98.484375 249.386719 97.949219 250.675781 97.261719 C 251.964844 96.578125 253.160156 95.757812 254.265625 94.808594 C 255.371094 93.855469 256.359375 92.792969 257.226562 91.621094 C 259.027344 89.148438 260.410156 89.390625 262.636719 90.839844 C 263.117188 91.140625 263.566406 91.480469 263.988281 91.855469 C 264.410156 92.234375 264.796875 92.648438 265.148438 93.09375 C 265.496094 93.539062 265.804688 94.015625 266.070312 94.515625 C 266.335938 95.015625 266.558594 95.535156 266.730469 96.074219 C 266.90625 96.613281 267.035156 97.160156 267.113281 97.722656 C 267.191406 98.285156 267.222656 98.847656 267.199219 99.414062 C 267.179688 99.980469 267.109375 100.542969 266.992188 101.09375 C 266.875 101.648438 266.707031 102.1875 266.492188 102.714844 C 266.109375 103.804688 265.582031 104.820312 264.914062 105.765625 C 264.25 106.710938 263.464844 107.546875 262.566406 108.273438 C 261.667969 109 260.6875 109.59375 259.625 110.050781 C 258.5625 110.503906 257.457031 110.808594 256.3125 110.957031 C 255.394531 110.972656 254.519531 111.167969 253.683594 111.542969 C 252.847656 111.917969 252.117188 112.441406 251.496094 113.117188 C 251.136719 113.636719 250.894531 114.207031 250.773438 114.828125 C 250.648438 115.449219 250.65625 116.066406 250.789062 116.683594 C 250.847656 117.378906 251.046875 118.023438 251.394531 118.625 C 251.742188 119.226562 252.203125 119.726562 252.773438 120.121094 C 253.550781 120.558594 254.378906 120.820312 255.265625 120.90625 C 256.152344 120.992188 257.019531 120.894531 257.863281 120.613281 C 260.304688 119.929688 262.699219 119.101562 265.046875 118.140625 C 266.003906 117.746094 266.988281 117.355469 267.984375 117.007812 C 268.917969 117.722656 269.667969 118.59375 270.226562 119.632812 C 270.789062 120.667969 271.113281 121.769531 271.199219 122.945312 C 271.324219 124.96875 271.054688 126.941406 270.386719 128.855469 C 269.714844 130.769531 268.699219 132.480469 267.339844 133.984375 Z M 267.339844 133.984375 "/></g><g style="fill:#202942;fill-opacity:1;"><g transform="translate(57.360934, 349.124977)"><path style="stroke:none" d="M 8.046875 -12.1875 C 7.378906 -12.1875 6.972656 -12.097656 6.828125 -11.921875 C 6.679688 -11.753906 6.609375 -11.222656 6.609375 -10.328125 L 6.609375 -10.046875 C 6.609375 -8.066406 6.632812 -6.460938 6.6875 -5.234375 C 6.738281 -4.003906 6.8125 -3.210938 6.90625 -2.859375 C 6.988281 -2.554688 7.4375 -2.28125 8.25 -2.03125 C 9.0625 -1.789062 10.019531 -1.671875 11.125 -1.671875 C 13.03125 -1.671875 14.535156 -2.113281 15.640625 -3 C 16.742188 -3.882812 17.296875 -5.078125 17.296875 -6.578125 C 17.296875 -8.535156 16.566406 -9.957031 15.109375 -10.84375 C 13.648438 -11.738281 11.296875 -12.1875 8.046875 -12.1875 Z M 6.609375 -17.5 L 6.609375 -15.5 C 6.609375 -14.84375 6.679688 -14.429688 6.828125 -14.265625 C 6.984375 -14.109375 7.390625 -14.03125 8.046875 -14.03125 C 10.816406 -14.03125 12.820312 -14.421875 14.0625 -15.203125 C 15.300781 -15.984375 15.921875 -17.226562 15.921875 -18.9375 C 15.921875 -20.539062 15.410156 -21.757812 14.390625 -22.59375 C 13.378906 -23.425781 11.875 -23.84375 9.875 -23.84375 C 8.90625 -23.84375 8.191406 -23.804688 7.734375 -23.734375 C 7.285156 -23.671875 7.019531 -23.570312 6.9375 -23.4375 C 6.820312 -23.207031 6.738281 -22.601562 6.6875 -21.625 C 6.632812 -20.644531 6.609375 -19.269531 6.609375 -17.5 Z M 19.46875 -19.46875 C 19.46875 -18.3125 19.175781 -17.285156 18.59375 -16.390625 C 18.007812 -15.492188 17.15625 -14.753906 16.03125 -14.171875 C 15.644531 -13.972656 15.210938 -13.800781 14.734375 -13.65625 C 14.265625 -13.519531 14.03125 -13.398438 14.03125 -13.296875 C 14.03125 -13.148438 14.34375 -13.019531 14.96875 -12.90625 C 15.238281 -12.851562 15.460938 -12.8125 15.640625 -12.78125 C 17.359375 -12.394531 18.664062 -11.691406 19.5625 -10.671875 C 20.457031 -9.648438 20.90625 -8.351562 20.90625 -6.78125 C 20.90625 -4.59375 20.097656 -2.90625 18.484375 -1.71875 C 16.867188 -0.53125 14.582031 0.0625 11.625 0.0625 C 10.882812 0.0625 9.921875 0.0351562 8.734375 -0.015625 C 7.554688 -0.078125 6.757812 -0.109375 6.34375 -0.109375 C 5.769531 -0.109375 5.144531 -0.0859375 4.46875 -0.046875 C 3.800781 -0.015625 3.421875 0 3.328125 0 C 2.554688 0 1.984375 -0.0859375 1.609375 -0.265625 C 1.234375 -0.441406 1.046875 -0.710938 1.046875 -1.078125 C 1.046875 -1.410156 1.375 -1.679688 2.03125 -1.890625 C 2.6875 -2.109375 3.054688 -2.28125 3.140625 -2.40625 C 3.328125 -2.632812 3.457031 -3.46875 3.53125 -4.90625 C 3.601562 -6.34375 3.640625 -8.96875 3.640625 -12.78125 C 3.640625 -16.5625 3.601562 -19.164062 3.53125 -20.59375 C 3.457031 -22.019531 3.328125 -22.847656 3.140625 -23.078125 C 3.054688 -23.203125 2.6875 -23.367188 2.03125 -23.578125 C 1.375 -23.796875 1.046875 -24.066406 1.046875 -24.390625 C 1.046875 -24.660156 1.15625 -24.882812 1.375 -25.0625 C 1.59375 -25.238281 1.910156 -25.351562 2.328125 -25.40625 C 2.328125 -25.40625 2.378906 -25.40625 2.484375 -25.40625 C 4.890625 -25.550781 7.757812 -25.625 11.09375 -25.625 C 13.675781 -25.625 15.71875 -25.066406 17.21875 -23.953125 C 18.71875 -22.847656 19.46875 -21.351562 19.46875 -19.46875 Z M 19.46875 -19.46875 "/></g></g><g style="fill:#202942;fill-opacity:1;"><g transform="translate(79.06019, 349.124977)"><path style="stroke:none" d="M 14.328125 0.703125 C 12.867188 0.703125 11.476562 0.488281 10.15625 0.0625 C 8.84375 -0.363281 7.648438 -0.988281 6.578125 -1.8125 C 4.953125 -3.070312 3.679688 -4.691406 2.765625 -6.671875 C 1.859375 -8.648438 1.40625 -10.789062 1.40625 -13.09375 C 1.40625 -14.582031 1.613281 -16 2.03125 -17.34375 C 2.445312 -18.6875 3.050781 -19.914062 3.84375 -21.03125 C 4.957031 -22.601562 6.40625 -23.828125 8.1875 -24.703125 C 9.96875 -25.578125 11.914062 -26.015625 14.03125 -26.015625 C 15.488281 -26.015625 16.863281 -25.785156 18.15625 -25.328125 C 19.457031 -24.867188 20.648438 -24.195312 21.734375 -23.3125 C 23.253906 -22.070312 24.429688 -20.476562 25.265625 -18.53125 C 26.109375 -16.582031 26.53125 -14.476562 26.53125 -12.21875 C 26.53125 -10.6875 26.332031 -9.25 25.9375 -7.90625 C 25.550781 -6.5625 24.976562 -5.347656 24.21875 -4.265625 C 23.113281 -2.671875 21.707031 -1.441406 20 -0.578125 C 18.289062 0.273438 16.398438 0.703125 14.328125 0.703125 Z M 23.109375 -11.234375 C 23.109375 -12.742188 22.925781 -14.195312 22.5625 -15.59375 C 22.195312 -16.988281 21.675781 -18.21875 21 -19.28125 C 20.019531 -20.84375 18.851562 -22.03125 17.5 -22.84375 C 16.15625 -23.664062 14.695312 -24.078125 13.125 -24.078125 C 10.613281 -24.078125 8.601562 -23.171875 7.09375 -21.359375 C 5.59375 -19.546875 4.84375 -17.125 4.84375 -14.09375 C 4.84375 -12.570312 5.023438 -11.09375 5.390625 -9.65625 C 5.765625 -8.226562 6.300781 -6.945312 7 -5.8125 C 7.90625 -4.3125 9.003906 -3.171875 10.296875 -2.390625 C 11.597656 -1.617188 13.066406 -1.234375 14.703125 -1.234375 C 17.273438 -1.234375 19.316406 -2.128906 20.828125 -3.921875 C 22.347656 -5.710938 23.109375 -8.148438 23.109375 -11.234375 Z M 23.109375 -11.234375 "/></g></g><g style="fill:#202942;fill-opacity:1;"><g transform="translate(107.012931, 349.124977)"><path style="stroke:none" d="M 8.8125 -19.8125 L 8.8125 -21.25 C 8.8125 -22.238281 8.742188 -22.84375 8.609375 -23.0625 C 8.484375 -23.289062 8.128906 -23.40625 7.546875 -23.40625 L 5.703125 -23.40625 C 5.015625 -23.40625 4.484375 -23.316406 4.109375 -23.140625 C 3.742188 -22.972656 3.410156 -22.65625 3.109375 -22.1875 C 2.898438 -21.863281 2.65625 -21.359375 2.375 -20.671875 C 1.914062 -19.554688 1.460938 -19 1.015625 -19 C 0.753906 -19 0.554688 -19.125 0.421875 -19.375 C 0.296875 -19.632812 0.234375 -20.023438 0.234375 -20.546875 C 0.234375 -22.035156 0.445312 -23.265625 0.875 -24.234375 C 1.3125 -25.203125 1.847656 -25.6875 2.484375 -25.6875 C 2.535156 -25.6875 2.65625 -25.664062 2.84375 -25.625 C 3.476562 -25.457031 4.09375 -25.375 4.6875 -25.375 L 15.796875 -25.375 C 16.390625 -25.375 17.003906 -25.457031 17.640625 -25.625 C 17.816406 -25.664062 17.9375 -25.6875 18 -25.6875 C 18.632812 -25.6875 19.171875 -25.195312 19.609375 -24.21875 C 20.046875 -23.25 20.265625 -22.023438 20.265625 -20.546875 C 20.265625 -20.046875 20.195312 -19.660156 20.0625 -19.390625 C 19.925781 -19.128906 19.726562 -19 19.46875 -19 C 19.007812 -19 18.5625 -19.546875 18.125 -20.640625 C 17.84375 -21.347656 17.597656 -21.863281 17.390625 -22.1875 C 17.097656 -22.65625 16.765625 -22.972656 16.390625 -23.140625 C 16.015625 -23.316406 15.472656 -23.40625 14.765625 -23.40625 L 12.921875 -23.40625 C 12.347656 -23.40625 12 -23.304688 11.875 -23.109375 C 11.75 -22.910156 11.6875 -22.367188 11.6875 -21.484375 L 11.6875 -12.78125 C 11.6875 -8.96875 11.722656 -6.34375 11.796875 -4.90625 C 11.867188 -3.46875 12 -2.632812 12.1875 -2.40625 C 12.28125 -2.28125 12.648438 -2.109375 13.296875 -1.890625 C 13.953125 -1.679688 14.28125 -1.410156 14.28125 -1.078125 C 14.28125 -0.640625 13.96875 -0.328125 13.34375 -0.140625 C 12.71875 0.046875 11.6875 0.140625 10.25 0.140625 C 8.800781 0.140625 7.757812 0.046875 7.125 -0.140625 C 6.5 -0.335938 6.1875 -0.648438 6.1875 -1.078125 C 6.1875 -1.410156 6.515625 -1.679688 7.171875 -1.890625 C 7.828125 -2.109375 8.207031 -2.285156 8.3125 -2.421875 C 8.488281 -2.648438 8.613281 -3.535156 8.6875 -5.078125 C 8.769531 -6.617188 8.8125 -9.1875 8.8125 -12.78125 Z M 8.8125 -19.8125 "/></g></g><g style="fill:#202942;fill-opacity:1;"><g transform="translate(127.516165, 349.124977)"><path style="stroke:none" d="M 6.578125 -13.34375 C 6.953125 -13.25 7.316406 -13.179688 7.671875 -13.140625 C 8.023438 -13.109375 8.363281 -13.09375 8.6875 -13.09375 C 11.113281 -13.09375 12.925781 -13.546875 14.125 -14.453125 C 15.320312 -15.367188 15.921875 -16.742188 15.921875 -18.578125 C 15.921875 -20.359375 15.421875 -21.679688 14.421875 -22.546875 C 13.429688 -23.410156 11.914062 -23.84375 9.875 -23.84375 C 8.519531 -23.84375 7.691406 -23.796875 7.390625 -23.703125 C 7.085938 -23.609375 6.894531 -23.429688 6.8125 -23.171875 C 6.75 -22.890625 6.691406 -21.878906 6.640625 -20.140625 C 6.597656 -18.398438 6.578125 -16.132812 6.578125 -13.34375 Z M 19.4375 -18.90625 C 19.4375 -16.507812 18.53125 -14.664062 16.71875 -13.375 C 14.90625 -12.09375 12.316406 -11.453125 8.953125 -11.453125 C 8.765625 -11.453125 8.53125 -11.460938 8.25 -11.484375 C 7.976562 -11.503906 7.804688 -11.515625 7.734375 -11.515625 C 7.203125 -11.515625 6.875 -11.425781 6.75 -11.25 C 6.632812 -11.070312 6.578125 -10.53125 6.578125 -9.625 L 6.578125 -9.3125 C 6.578125 -7.039062 6.613281 -5.375 6.6875 -4.3125 C 6.757812 -3.257812 6.875 -2.628906 7.03125 -2.421875 C 7.125 -2.285156 7.5 -2.109375 8.15625 -1.890625 C 8.8125 -1.679688 9.140625 -1.410156 9.140625 -1.078125 C 9.140625 -0.648438 8.820312 -0.335938 8.1875 -0.140625 C 7.5625 0.046875 6.523438 0.140625 5.078125 0.140625 C 3.640625 0.140625 2.609375 0.046875 1.984375 -0.140625 C 1.359375 -0.328125 1.046875 -0.640625 1.046875 -1.078125 C 1.046875 -1.410156 1.375 -1.679688 2.03125 -1.890625 C 2.6875 -2.109375 3.054688 -2.28125 3.140625 -2.40625 C 3.328125 -2.632812 3.457031 -3.46875 3.53125 -4.90625 C 3.601562 -6.34375 3.640625 -8.96875 3.640625 -12.78125 C 3.640625 -16.5625 3.601562 -19.164062 3.53125 -20.59375 C 3.457031 -22.019531 3.328125 -22.847656 3.140625 -23.078125 C 3.054688 -23.203125 2.6875 -23.367188 2.03125 -23.578125 C 1.375 -23.796875 1.046875 -24.066406 1.046875 -24.390625 C 1.046875 -24.660156 1.15625 -24.882812 1.375 -25.0625 C 1.59375 -25.238281 1.910156 -25.351562 2.328125 -25.40625 C 2.328125 -25.40625 2.378906 -25.40625 2.484375 -25.40625 C 4.890625 -25.550781 7.757812 -25.625 11.09375 -25.625 C 13.738281 -25.625 15.789062 -25.035156 17.25 -23.859375 C 18.707031 -22.679688 19.4375 -21.03125 19.4375 -18.90625 Z M 19.4375 -18.90625 "/></g></g><g style="fill:#202942;fill-opacity:1;"><g transform="translate(146.874635, 349.124977)"><path style="stroke:none" d="M 7.78125 -10.546875 C 8.226562 -10.566406 8.734375 -10.582031 9.296875 -10.59375 C 9.867188 -10.601562 10.757812 -10.609375 11.96875 -10.609375 C 13.25 -10.609375 14.234375 -10.601562 14.921875 -10.59375 C 15.617188 -10.582031 16.269531 -10.5625 16.875 -10.53125 C 15.988281 -12.84375 15.148438 -14.914062 14.359375 -16.75 C 13.578125 -18.582031 12.941406 -19.96875 12.453125 -20.90625 L 12.21875 -20.90625 C 11.78125 -20.09375 11.203125 -18.84375 10.484375 -17.15625 C 9.765625 -15.476562 8.863281 -13.273438 7.78125 -10.546875 Z M 12.21875 -8.609375 L 10.390625 -8.609375 C 9.078125 -8.609375 8.207031 -8.570312 7.78125 -8.5 C 7.351562 -8.4375 7.082031 -8.320312 6.96875 -8.15625 C 6.894531 -8.050781 6.800781 -7.882812 6.6875 -7.65625 C 6.582031 -7.425781 6.40625 -6.988281 6.15625 -6.34375 C 6.101562 -6.21875 6.035156 -6.039062 5.953125 -5.8125 C 5.429688 -4.539062 5.171875 -3.722656 5.171875 -3.359375 C 5.171875 -3.054688 5.25 -2.804688 5.40625 -2.609375 C 5.570312 -2.421875 5.832031 -2.265625 6.1875 -2.140625 C 6.3125 -2.085938 6.476562 -2.03125 6.6875 -1.96875 C 7.4375 -1.707031 7.8125 -1.410156 7.8125 -1.078125 C 7.8125 -0.648438 7.492188 -0.335938 6.859375 -0.140625 C 6.222656 0.046875 5.1875 0.140625 3.75 0.140625 C 2.3125 0.140625 1.28125 0.046875 0.65625 -0.140625 C 0.03125 -0.328125 -0.28125 -0.640625 -0.28125 -1.078125 C -0.28125 -1.421875 0.0976562 -1.707031 0.859375 -1.9375 C 1.210938 -2.03125 1.472656 -2.117188 1.640625 -2.203125 C 2.203125 -2.554688 2.894531 -3.742188 3.71875 -5.765625 L 3.8125 -5.984375 C 4.582031 -7.859375 5.625 -10.363281 6.9375 -13.5 C 9.738281 -20.226562 11.21875 -23.953125 11.375 -24.671875 C 11.394531 -24.742188 11.421875 -24.851562 11.453125 -25 C 11.566406 -25.550781 11.9375 -25.828125 12.5625 -25.828125 C 12.9375 -25.828125 13.234375 -25.742188 13.453125 -25.578125 C 13.671875 -25.410156 13.9375 -24.976562 14.25 -24.28125 C 15.550781 -21.414062 17.382812 -16.957031 19.75 -10.90625 C 20.875 -8.050781 21.71875 -5.914062 22.28125 -4.5 C 22.332031 -4.394531 22.382812 -4.269531 22.4375 -4.125 C 22.875 -3.050781 23.316406 -2.390625 23.765625 -2.140625 C 23.890625 -2.066406 24.113281 -1.976562 24.4375 -1.875 C 25.113281 -1.664062 25.453125 -1.390625 25.453125 -1.046875 C 25.453125 -0.640625 25.09375 -0.335938 24.375 -0.140625 C 23.65625 0.046875 22.53125 0.140625 21 0.140625 C 19.46875 0.140625 18.34375 0.046875 17.625 -0.140625 C 16.914062 -0.335938 16.5625 -0.640625 16.5625 -1.046875 C 16.5625 -1.390625 16.96875 -1.703125 17.78125 -1.984375 C 17.945312 -2.035156 18.085938 -2.085938 18.203125 -2.140625 C 18.535156 -2.191406 18.78125 -2.3125 18.9375 -2.5 C 19.09375 -2.695312 19.171875 -2.960938 19.171875 -3.296875 C 19.171875 -3.660156 19.03125 -4.296875 18.75 -5.203125 C 18.46875 -6.109375 18.097656 -7.007812 17.640625 -7.90625 C 17.492188 -8.175781 17.195312 -8.359375 16.75 -8.453125 C 16.300781 -8.554688 15.429688 -8.609375 14.140625 -8.609375 Z M 12.21875 -8.609375 "/></g></g><g style="fill:#202942;fill-opacity:1;"><g transform="translate(171.581031, 349.124977)"><path style="stroke:none" d="M 6.640625 -13.921875 C 7.078125 -13.859375 7.453125 -13.804688 7.765625 -13.765625 C 8.085938 -13.734375 8.367188 -13.71875 8.609375 -13.71875 C 10.890625 -13.71875 12.628906 -14.171875 13.828125 -15.078125 C 15.035156 -15.992188 15.640625 -17.3125 15.640625 -19.03125 C 15.640625 -20.5625 15.125 -21.742188 14.09375 -22.578125 C 13.0625 -23.421875 11.59375 -23.84375 9.6875 -23.84375 L 9.140625 -23.84375 C 8.191406 -23.84375 7.59375 -23.796875 7.34375 -23.703125 C 7.09375 -23.617188 6.929688 -23.453125 6.859375 -23.203125 C 6.785156 -22.921875 6.726562 -22.007812 6.6875 -20.46875 C 6.65625 -18.925781 6.640625 -16.742188 6.640625 -13.921875 Z M 13.6875 -12.703125 C 14.976562 -12.265625 16 -11.625 16.75 -10.78125 C 17.507812 -9.945312 18.117188 -8.78125 18.578125 -7.28125 C 18.773438 -6.65625 19.003906 -5.820312 19.265625 -4.78125 C 19.765625 -2.726562 20.425781 -1.703125 21.25 -1.703125 C 21.445312 -1.703125 21.691406 -1.75 21.984375 -1.84375 C 22.285156 -1.945312 22.492188 -2 22.609375 -2 C 22.804688 -2 22.960938 -1.9375 23.078125 -1.8125 C 23.191406 -1.6875 23.25 -1.523438 23.25 -1.328125 C 23.25 -0.898438 22.925781 -0.515625 22.28125 -0.171875 C 21.644531 0.171875 20.890625 0.34375 20.015625 0.34375 C 19.460938 0.34375 18.972656 0.265625 18.546875 0.109375 C 18.117188 -0.046875 17.757812 -0.28125 17.46875 -0.59375 C 16.925781 -1.1875 16.398438 -2.484375 15.890625 -4.484375 C 15.742188 -5.046875 15.625 -5.488281 15.53125 -5.8125 C 15.113281 -7.320312 14.675781 -8.484375 14.21875 -9.296875 C 13.757812 -10.109375 13.195312 -10.738281 12.53125 -11.1875 C 12.0625 -11.519531 11.519531 -11.753906 10.90625 -11.890625 C 10.300781 -12.035156 9.328125 -12.109375 7.984375 -12.109375 C 7.316406 -12.109375 6.914062 -12.023438 6.78125 -11.859375 C 6.644531 -11.703125 6.578125 -11.222656 6.578125 -10.421875 L 6.578125 -9.6875 C 6.578125 -7.101562 6.609375 -5.296875 6.671875 -4.265625 C 6.742188 -3.242188 6.863281 -2.628906 7.03125 -2.421875 C 7.125 -2.285156 7.5 -2.109375 8.15625 -1.890625 C 8.8125 -1.679688 9.140625 -1.410156 9.140625 -1.078125 C 9.140625 -0.648438 8.820312 -0.335938 8.1875 -0.140625 C 7.5625 0.046875 6.523438 0.140625 5.078125 0.140625 C 3.640625 0.140625 2.609375 0.046875 1.984375 -0.140625 C 1.359375 -0.328125 1.046875 -0.640625 1.046875 -1.078125 C 1.046875 -1.410156 1.375 -1.679688 2.03125 -1.890625 C 2.6875 -2.109375 3.054688 -2.28125 3.140625 -2.40625 C 3.328125 -2.632812 3.457031 -3.46875 3.53125 -4.90625 C 3.601562 -6.34375 3.640625 -8.96875 3.640625 -12.78125 C 3.640625 -16.5625 3.601562 -19.164062 3.53125 -20.59375 C 3.457031 -22.019531 3.328125 -22.847656 3.140625 -23.078125 C 3.054688 -23.203125 2.6875 -23.367188 2.03125 -23.578125 C 1.375 -23.796875 1.046875 -24.066406 1.046875 -24.390625 C 1.046875 -24.660156 1.15625 -24.882812 1.375 -25.0625 C 1.59375 -25.238281 1.910156 -25.351562 2.328125 -25.40625 C 2.328125 -25.40625 2.378906 -25.40625 2.484375 -25.40625 C 4.835938 -25.550781 7.613281 -25.625 10.8125 -25.625 C 13.332031 -25.625 15.34375 -25.054688 16.84375 -23.921875 C 18.351562 -22.796875 19.109375 -21.3125 19.109375 -19.46875 C 19.109375 -17.976562 18.644531 -16.675781 17.71875 -15.5625 C 16.800781 -14.445312 15.457031 -13.578125 13.6875 -12.953125 Z M 13.6875 -12.703125 "/></g></g><g style="fill:#202942;fill-opacity:1;"><g transform="translate(193.878298, 349.124977)"><path style="stroke:none" d="M 8.8125 -19.8125 L 8.8125 -21.25 C 8.8125 -22.238281 8.742188 -22.84375 8.609375 -23.0625 C 8.484375 -23.289062 8.128906 -23.40625 7.546875 -23.40625 L 5.703125 -23.40625 C 5.015625 -23.40625 4.484375 -23.316406 4.109375 -23.140625 C 3.742188 -22.972656 3.410156 -22.65625 3.109375 -22.1875 C 2.898438 -21.863281 2.65625 -21.359375 2.375 -20.671875 C 1.914062 -19.554688 1.460938 -19 1.015625 -19 C 0.753906 -19 0.554688 -19.125 0.421875 -19.375 C 0.296875 -19.632812 0.234375 -20.023438 0.234375 -20.546875 C 0.234375 -22.035156 0.445312 -23.265625 0.875 -24.234375 C 1.3125 -25.203125 1.847656 -25.6875 2.484375 -25.6875 C 2.535156 -25.6875 2.65625 -25.664062 2.84375 -25.625 C 3.476562 -25.457031 4.09375 -25.375 4.6875 -25.375 L 15.796875 -25.375 C 16.390625 -25.375 17.003906 -25.457031 17.640625 -25.625 C 17.816406 -25.664062 17.9375 -25.6875 18 -25.6875 C 18.632812 -25.6875 19.171875 -25.195312 19.609375 -24.21875 C 20.046875 -23.25 20.265625 -22.023438 20.265625 -20.546875 C 20.265625 -20.046875 20.195312 -19.660156 20.0625 -19.390625 C 19.925781 -19.128906 19.726562 -19 19.46875 -19 C 19.007812 -19 18.5625 -19.546875 18.125 -20.640625 C 17.84375 -21.347656 17.597656 -21.863281 17.390625 -22.1875 C 17.097656 -22.65625 16.765625 -22.972656 16.390625 -23.140625 C 16.015625 -23.316406 15.472656 -23.40625 14.765625 -23.40625 L 12.921875 -23.40625 C 12.347656 -23.40625 12 -23.304688 11.875 -23.109375 C 11.75 -22.910156 11.6875 -22.367188 11.6875 -21.484375 L 11.6875 -12.78125 C 11.6875 -8.96875 11.722656 -6.34375 11.796875 -4.90625 C 11.867188 -3.46875 12 -2.632812 12.1875 -2.40625 C 12.28125 -2.28125 12.648438 -2.109375 13.296875 -1.890625 C 13.953125 -1.679688 14.28125 -1.410156 14.28125 -1.078125 C 14.28125 -0.640625 13.96875 -0.328125 13.34375 -0.140625 C 12.71875 0.046875 11.6875 0.140625 10.25 0.140625 C 8.800781 0.140625 7.757812 0.046875 7.125 -0.140625 C 6.5 -0.335938 6.1875 -0.648438 6.1875 -1.078125 C 6.1875 -1.410156 6.515625 -1.679688 7.171875 -1.890625 C 7.828125 -2.109375 8.207031 -2.285156 8.3125 -2.421875 C 8.488281 -2.648438 8.613281 -3.535156 8.6875 -5.078125 C 8.769531 -6.617188 8.8125 -9.1875 8.8125 -12.78125 Z M 8.8125 -19.8125 "/></g></g><g style="fill:#202942;fill-opacity:1;"><g transform="translate(214.381531, 349.124977)"><path style="stroke:none" d="M 5.5 -20.96875 L 5.5 -12.78125 C 5.5 -9.382812 5.539062 -6.863281 5.625 -5.21875 C 5.707031 -3.582031 5.835938 -2.648438 6.015625 -2.421875 C 6.117188 -2.285156 6.5 -2.109375 7.15625 -1.890625 C 7.820312 -1.679688 8.15625 -1.410156 8.15625 -1.078125 C 8.15625 -0.671875 7.878906 -0.367188 7.328125 -0.171875 C 6.773438 0.015625 5.867188 0.109375 4.609375 0.109375 C 3.347656 0.109375 2.429688 0.015625 1.859375 -0.171875 C 1.296875 -0.367188 1.015625 -0.671875 1.015625 -1.078125 C 1.015625 -1.410156 1.347656 -1.679688 2.015625 -1.890625 C 2.679688 -2.109375 3.054688 -2.28125 3.140625 -2.40625 C 3.328125 -2.632812 3.457031 -3.46875 3.53125 -4.90625 C 3.601562 -6.34375 3.640625 -8.96875 3.640625 -12.78125 C 3.640625 -16.5625 3.601562 -19.164062 3.53125 -20.59375 C 3.457031 -22.019531 3.328125 -22.847656 3.140625 -23.078125 C 3.054688 -23.203125 2.679688 -23.367188 2.015625 -23.578125 C 1.347656 -23.796875 1.015625 -24.066406 1.015625 -24.390625 C 1.015625 -24.785156 1.257812 -25.082031 1.75 -25.28125 C 2.238281 -25.476562 2.945312 -25.578125 3.875 -25.578125 C 4.601562 -25.578125 5.160156 -25.492188 5.546875 -25.328125 C 5.941406 -25.160156 6.320312 -24.820312 6.6875 -24.3125 C 6.882812 -24.050781 7.285156 -23.515625 7.890625 -22.703125 C 12.429688 -16.546875 17.101562 -10.550781 21.90625 -4.71875 L 21.90625 -12.734375 C 21.90625 -16.804688 21.867188 -19.488281 21.796875 -20.78125 C 21.722656 -22.082031 21.59375 -22.847656 21.40625 -23.078125 C 21.320312 -23.203125 20.945312 -23.367188 20.28125 -23.578125 C 19.613281 -23.796875 19.28125 -24.066406 19.28125 -24.390625 C 19.28125 -24.804688 19.5625 -25.109375 20.125 -25.296875 C 20.6875 -25.484375 21.59375 -25.578125 22.84375 -25.578125 C 24.113281 -25.578125 25.023438 -25.484375 25.578125 -25.296875 C 26.140625 -25.109375 26.421875 -24.804688 26.421875 -24.390625 C 26.421875 -24.242188 26.347656 -24.109375 26.203125 -23.984375 C 26.066406 -23.859375 25.847656 -23.738281 25.546875 -23.625 C 25.472656 -23.59375 25.359375 -23.554688 25.203125 -23.515625 C 24.578125 -23.316406 24.222656 -23.070312 24.140625 -22.78125 C 24.015625 -22.332031 23.921875 -20.691406 23.859375 -17.859375 C 23.796875 -15.023438 23.765625 -11.113281 23.765625 -6.125 L 23.765625 -1.234375 C 23.765625 -0.546875 23.707031 -0.128906 23.59375 0.015625 C 23.488281 0.160156 23.289062 0.234375 23 0.234375 C 22.613281 0.234375 22.273438 0.148438 21.984375 -0.015625 C 21.703125 -0.191406 21.289062 -0.609375 20.75 -1.265625 C 19.59375 -2.660156 17.59375 -5.191406 14.75 -8.859375 C 11.914062 -12.523438 8.832031 -16.5625 5.5 -20.96875 Z M 5.5 -20.96875 "/></g></g><g style="fill:#202942;fill-opacity:1;"><g transform="translate(241.189509, 349.124977)"><path style="stroke:none" d="M 3.90625 0 C 2.863281 0 2.125 -0.0820312 1.6875 -0.25 C 1.257812 -0.414062 1.046875 -0.691406 1.046875 -1.078125 C 1.046875 -1.410156 1.375 -1.679688 2.03125 -1.890625 C 2.6875 -2.109375 3.054688 -2.28125 3.140625 -2.40625 C 3.328125 -2.632812 3.457031 -3.46875 3.53125 -4.90625 C 3.601562 -6.34375 3.640625 -8.96875 3.640625 -12.78125 C 3.640625 -16.5625 3.601562 -19.164062 3.53125 -20.59375 C 3.457031 -22.019531 3.328125 -22.847656 3.140625 -23.078125 C 3.054688 -23.203125 2.6875 -23.367188 2.03125 -23.578125 C 1.375 -23.796875 1.046875 -24.066406 1.046875 -24.390625 C 1.046875 -24.785156 1.265625 -25.070312 1.703125 -25.25 C 2.148438 -25.425781 2.882812 -25.515625 3.90625 -25.515625 L 15.796875 -25.515625 C 16.359375 -25.515625 16.929688 -25.570312 17.515625 -25.6875 C 18.109375 -25.800781 18.414062 -25.859375 18.4375 -25.859375 C 18.90625 -25.859375 19.269531 -25.515625 19.53125 -24.828125 C 19.800781 -24.140625 19.9375 -23.191406 19.9375 -21.984375 C 19.9375 -21.523438 19.859375 -21.171875 19.703125 -20.921875 C 19.554688 -20.671875 19.332031 -20.546875 19.03125 -20.546875 C 18.738281 -20.546875 18.410156 -20.867188 18.046875 -21.515625 C 17.929688 -21.722656 17.84375 -21.878906 17.78125 -21.984375 C 17.4375 -22.546875 17.035156 -22.929688 16.578125 -23.140625 C 16.128906 -23.347656 15.445312 -23.453125 14.53125 -23.453125 L 10.015625 -23.453125 C 8.929688 -23.453125 8.175781 -23.398438 7.75 -23.296875 C 7.320312 -23.203125 7.0625 -23.03125 6.96875 -22.78125 C 6.820312 -22.425781 6.71875 -21.738281 6.65625 -20.71875 C 6.601562 -19.695312 6.578125 -18.066406 6.578125 -15.828125 L 6.578125 -15.53125 C 6.578125 -14.988281 6.625 -14.660156 6.71875 -14.546875 C 6.8125 -14.441406 7.035156 -14.390625 7.390625 -14.390625 L 12 -14.390625 C 12.78125 -14.390625 13.332031 -14.515625 13.65625 -14.765625 C 13.988281 -15.015625 14.195312 -15.488281 14.28125 -16.1875 C 14.289062 -16.257812 14.3125 -16.378906 14.34375 -16.546875 C 14.476562 -17.597656 14.796875 -18.125 15.296875 -18.125 C 15.742188 -18.125 16.046875 -17.832031 16.203125 -17.25 C 16.367188 -16.664062 16.453125 -15.367188 16.453125 -13.359375 C 16.453125 -11.367188 16.367188 -10.082031 16.203125 -9.5 C 16.046875 -8.925781 15.742188 -8.640625 15.296875 -8.640625 C 14.796875 -8.640625 14.476562 -9.164062 14.34375 -10.21875 C 14.3125 -10.382812 14.289062 -10.507812 14.28125 -10.59375 C 14.195312 -11.289062 13.988281 -11.765625 13.65625 -12.015625 C 13.332031 -12.265625 12.78125 -12.390625 12 -12.390625 L 7.390625 -12.390625 C 7.054688 -12.390625 6.832031 -12.300781 6.71875 -12.125 C 6.601562 -11.945312 6.546875 -11.578125 6.546875 -11.015625 C 6.546875 -10.878906 6.550781 -10.5625 6.5625 -10.0625 C 6.570312 -9.570312 6.578125 -9.144531 6.578125 -8.78125 C 6.578125 -7.125 6.609375 -5.84375 6.671875 -4.9375 C 6.742188 -4.039062 6.851562 -3.421875 7 -3.078125 C 7.15625 -2.703125 7.523438 -2.429688 8.109375 -2.265625 C 8.691406 -2.109375 9.640625 -2.03125 10.953125 -2.03125 L 14.09375 -2.03125 C 15.351562 -2.03125 16.300781 -2.1875 16.9375 -2.5 C 17.570312 -2.820312 18.117188 -3.394531 18.578125 -4.21875 C 18.753906 -4.550781 18.945312 -4.992188 19.15625 -5.546875 C 19.4375 -6.347656 19.757812 -6.75 20.125 -6.75 C 20.40625 -6.75 20.625 -6.597656 20.78125 -6.296875 C 20.945312 -6.003906 21.03125 -5.609375 21.03125 -5.109375 C 21.03125 -3.734375 20.796875 -2.46875 20.328125 -1.3125 C 19.867188 -0.15625 19.394531 0.421875 18.90625 0.421875 C 18.84375 0.421875 18.691406 0.390625 18.453125 0.328125 C 17.671875 0.109375 16.882812 0 16.09375 0 Z M 3.90625 0 "/></g></g><g style="fill:#202942;fill-opacity:1;"><g transform="translate(262.39327, 349.124977)"><path style="stroke:none" d="M 6.640625 -13.921875 C 7.078125 -13.859375 7.453125 -13.804688 7.765625 -13.765625 C 8.085938 -13.734375 8.367188 -13.71875 8.609375 -13.71875 C 10.890625 -13.71875 12.628906 -14.171875 13.828125 -15.078125 C 15.035156 -15.992188 15.640625 -17.3125 15.640625 -19.03125 C 15.640625 -20.5625 15.125 -21.742188 14.09375 -22.578125 C 13.0625 -23.421875 11.59375 -23.84375 9.6875 -23.84375 L 9.140625 -23.84375 C 8.191406 -23.84375 7.59375 -23.796875 7.34375 -23.703125 C 7.09375 -23.617188 6.929688 -23.453125 6.859375 -23.203125 C 6.785156 -22.921875 6.726562 -22.007812 6.6875 -20.46875 C 6.65625 -18.925781 6.640625 -16.742188 6.640625 -13.921875 Z M 13.6875 -12.703125 C 14.976562 -12.265625 16 -11.625 16.75 -10.78125 C 17.507812 -9.945312 18.117188 -8.78125 18.578125 -7.28125 C 18.773438 -6.65625 19.003906 -5.820312 19.265625 -4.78125 C 19.765625 -2.726562 20.425781 -1.703125 21.25 -1.703125 C 21.445312 -1.703125 21.691406 -1.75 21.984375 -1.84375 C 22.285156 -1.945312 22.492188 -2 22.609375 -2 C 22.804688 -2 22.960938 -1.9375 23.078125 -1.8125 C 23.191406 -1.6875 23.25 -1.523438 23.25 -1.328125 C 23.25 -0.898438 22.925781 -0.515625 22.28125 -0.171875 C 21.644531 0.171875 20.890625 0.34375 20.015625 0.34375 C 19.460938 0.34375 18.972656 0.265625 18.546875 0.109375 C 18.117188 -0.046875 17.757812 -0.28125 17.46875 -0.59375 C 16.925781 -1.1875 16.398438 -2.484375 15.890625 -4.484375 C 15.742188 -5.046875 15.625 -5.488281 15.53125 -5.8125 C 15.113281 -7.320312 14.675781 -8.484375 14.21875 -9.296875 C 13.757812 -10.109375 13.195312 -10.738281 12.53125 -11.1875 C 12.0625 -11.519531 11.519531 -11.753906 10.90625 -11.890625 C 10.300781 -12.035156 9.328125 -12.109375 7.984375 -12.109375 C 7.316406 -12.109375 6.914062 -12.023438 6.78125 -11.859375 C 6.644531 -11.703125 6.578125 -11.222656 6.578125 -10.421875 L 6.578125 -9.6875 C 6.578125 -7.101562 6.609375 -5.296875 6.671875 -4.265625 C 6.742188 -3.242188 6.863281 -2.628906 7.03125 -2.421875 C 7.125 -2.285156 7.5 -2.109375 8.15625 -1.890625 C 8.8125 -1.679688 9.140625 -1.410156 9.140625 -1.078125 C 9.140625 -0.648438 8.820312 -0.335938 8.1875 -0.140625 C 7.5625 0.046875 6.523438 0.140625 5.078125 0.140625 C 3.640625 0.140625 2.609375 0.046875 1.984375 -0.140625 C 1.359375 -0.328125 1.046875 -0.640625 1.046875 -1.078125 C 1.046875 -1.410156 1.375 -1.679688 2.03125 -1.890625 C 2.6875 -2.109375 3.054688 -2.28125 3.140625 -2.40625 C 3.328125 -2.632812 3.457031 -3.46875 3.53125 -4.90625 C 3.601562 -6.34375 3.640625 -8.96875 3.640625 -12.78125 C 3.640625 -16.5625 3.601562 -19.164062 3.53125 -20.59375 C 3.457031 -22.019531 3.328125 -22.847656 3.140625 -23.078125 C 3.054688 -23.203125 2.6875 -23.367188 2.03125 -23.578125 C 1.375 -23.796875 1.046875 -24.066406 1.046875 -24.390625 C 1.046875 -24.660156 1.15625 -24.882812 1.375 -25.0625 C 1.59375 -25.238281 1.910156 -25.351562 2.328125 -25.40625 C 2.328125 -25.40625 2.378906 -25.40625 2.484375 -25.40625 C 4.835938 -25.550781 7.613281 -25.625 10.8125 -25.625 C 13.332031 -25.625 15.34375 -25.054688 16.84375 -23.921875 C 18.351562 -22.796875 19.109375 -21.3125 19.109375 -19.46875 C 19.109375 -17.976562 18.644531 -16.675781 17.71875 -15.5625 C 16.800781 -14.445312 15.457031 -13.578125 13.6875 -12.953125 Z M 13.6875 -12.703125 "/></g></g><g style="fill:#202942;fill-opacity:1;"><g transform="translate(284.690525, 349.124977)"><path style="stroke:none" d="M 2.671875 -1.53125 C 2.671875 -2.125 2.859375 -2.617188 3.234375 -3.015625 C 3.617188 -3.410156 4.101562 -3.609375 4.6875 -3.609375 C 5.257812 -3.609375 5.742188 -3.40625 6.140625 -3 C 6.546875 -2.601562 6.75 -2.113281 6.75 -1.53125 C 6.75 -0.976562 6.546875 -0.5 6.140625 -0.09375 C 5.742188 0.300781 5.257812 0.5 4.6875 0.5 C 4.113281 0.5 3.632812 0.304688 3.25 -0.078125 C 2.863281 -0.472656 2.671875 -0.957031 2.671875 -1.53125 Z M 2.671875 -1.53125 "/></g></g><g style="fill:#202942;fill-opacity:1;"><g transform="translate(294.104937, 349.124977)"><path style="stroke:none" d="M 5.5 -20.96875 L 5.5 -12.78125 C 5.5 -9.382812 5.539062 -6.863281 5.625 -5.21875 C 5.707031 -3.582031 5.835938 -2.648438 6.015625 -2.421875 C 6.117188 -2.285156 6.5 -2.109375 7.15625 -1.890625 C 7.820312 -1.679688 8.15625 -1.410156 8.15625 -1.078125 C 8.15625 -0.671875 7.878906 -0.367188 7.328125 -0.171875 C 6.773438 0.015625 5.867188 0.109375 4.609375 0.109375 C 3.347656 0.109375 2.429688 0.015625 1.859375 -0.171875 C 1.296875 -0.367188 1.015625 -0.671875 1.015625 -1.078125 C 1.015625 -1.410156 1.347656 -1.679688 2.015625 -1.890625 C 2.679688 -2.109375 3.054688 -2.28125 3.140625 -2.40625 C 3.328125 -2.632812 3.457031 -3.46875 3.53125 -4.90625 C 3.601562 -6.34375 3.640625 -8.96875 3.640625 -12.78125 C 3.640625 -16.5625 3.601562 -19.164062 3.53125 -20.59375 C 3.457031 -22.019531 3.328125 -22.847656 3.140625 -23.078125 C 3.054688 -23.203125 2.679688 -23.367188 2.015625 -23.578125 C 1.347656 -23.796875 1.015625 -24.066406 1.015625 -24.390625 C 1.015625 -24.785156 1.257812 -25.082031 1.75 -25.28125 C 2.238281 -25.476562 2.945312 -25.578125 3.875 -25.578125 C 4.601562 -25.578125 5.160156 -25.492188 5.546875 -25.328125 C 5.941406 -25.160156 6.320312 -24.820312 6.6875 -24.3125 C 6.882812 -24.050781 7.285156 -23.515625 7.890625 -22.703125 C 12.429688 -16.546875 17.101562 -10.550781 21.90625 -4.71875 L 21.90625 -12.734375 C 21.90625 -16.804688 21.867188 -19.488281 21.796875 -20.78125 C 21.722656 -22.082031 21.59375 -22.847656 21.40625 -23.078125 C 21.320312 -23.203125 20.945312 -23.367188 20.28125 -23.578125 C 19.613281 -23.796875 19.28125 -24.066406 19.28125 -24.390625 C 19.28125 -24.804688 19.5625 -25.109375 20.125 -25.296875 C 20.6875 -25.484375 21.59375 -25.578125 22.84375 -25.578125 C 24.113281 -25.578125 25.023438 -25.484375 25.578125 -25.296875 C 26.140625 -25.109375 26.421875 -24.804688 26.421875 -24.390625 C 26.421875 -24.242188 26.347656 -24.109375 26.203125 -23.984375 C 26.066406 -23.859375 25.847656 -23.738281 25.546875 -23.625 C 25.472656 -23.59375 25.359375 -23.554688 25.203125 -23.515625 C 24.578125 -23.316406 24.222656 -23.070312 24.140625 -22.78125 C 24.015625 -22.332031 23.921875 -20.691406 23.859375 -17.859375 C 23.796875 -15.023438 23.765625 -11.113281 23.765625 -6.125 L 23.765625 -1.234375 C 23.765625 -0.546875 23.707031 -0.128906 23.59375 0.015625 C 23.488281 0.160156 23.289062 0.234375 23 0.234375 C 22.613281 0.234375 22.273438 0.148438 21.984375 -0.015625 C 21.703125 -0.191406 21.289062 -0.609375 20.75 -1.265625 C 19.59375 -2.660156 17.59375 -5.191406 14.75 -8.859375 C 11.914062 -12.523438 8.832031 -16.5625 5.5 -20.96875 Z M 5.5 -20.96875 "/></g></g><g style="fill:#202942;fill-opacity:1;"><g transform="translate(320.912904, 349.124977)"><path style="stroke:none" d="M 14.328125 0.703125 C 12.867188 0.703125 11.476562 0.488281 10.15625 0.0625 C 8.84375 -0.363281 7.648438 -0.988281 6.578125 -1.8125 C 4.953125 -3.070312 3.679688 -4.691406 2.765625 -6.671875 C 1.859375 -8.648438 1.40625 -10.789062 1.40625 -13.09375 C 1.40625 -14.582031 1.613281 -16 2.03125 -17.34375 C 2.445312 -18.6875 3.050781 -19.914062 3.84375 -21.03125 C 4.957031 -22.601562 6.40625 -23.828125 8.1875 -24.703125 C 9.96875 -25.578125 11.914062 -26.015625 14.03125 -26.015625 C 15.488281 -26.015625 16.863281 -25.785156 18.15625 -25.328125 C 19.457031 -24.867188 20.648438 -24.195312 21.734375 -23.3125 C 23.253906 -22.070312 24.429688 -20.476562 25.265625 -18.53125 C 26.109375 -16.582031 26.53125 -14.476562 26.53125 -12.21875 C 26.53125 -10.6875 26.332031 -9.25 25.9375 -7.90625 C 25.550781 -6.5625 24.976562 -5.347656 24.21875 -4.265625 C 23.113281 -2.671875 21.707031 -1.441406 20 -0.578125 C 18.289062 0.273438 16.398438 0.703125 14.328125 0.703125 Z M 23.109375 -11.234375 C 23.109375 -12.742188 22.925781 -14.195312 22.5625 -15.59375 C 22.195312 -16.988281 21.675781 -18.21875 21 -19.28125 C 20.019531 -20.84375 18.851562 -22.03125 17.5 -22.84375 C 16.15625 -23.664062 14.695312 -24.078125 13.125 -24.078125 C 10.613281 -24.078125 8.601562 -23.171875 7.09375 -21.359375 C 5.59375 -19.546875 4.84375 -17.125 4.84375 -14.09375 C 4.84375 -12.570312 5.023438 -11.09375 5.390625 -9.65625 C 5.765625 -8.226562 6.300781 -6.945312 7 -5.8125 C 7.90625 -4.3125 9.003906 -3.171875 10.296875 -2.390625 C 11.597656 -1.617188 13.066406 -1.234375 14.703125 -1.234375 C 17.273438 -1.234375 19.316406 -2.128906 20.828125 -3.921875 C 22.347656 -5.710938 23.109375 -8.148438 23.109375 -11.234375 Z M 23.109375 -11.234375 "/></g></g></g></svg>